<?xml version="1.0" encoding="UTF-8"?>
<!DOCTYPE svg PUBLIC "-//W3C//DTD SVG 1.1//EN" "http://www.w3.org/Graphics/SVG/1.1/DTD/svg11.dtd">
<svg xmlns="http://www.w3.org/2000/svg" version="1.1" width="445px" height="359px" style="shape-rendering:geometricPrecision; text-rendering:geometricPrecision; image-rendering:optimizeQuality; fill-rule:evenodd; clip-rule:evenodd" xmlns:xlink="http://www.w3.org/1999/xlink">
<g><path style="opacity:0.61" fill="#d5b3f3" d="M 224.5,12.5 C 227.956,12.5965 231.123,13.5965 234,15.5C 233.928,26.0055 235.095,36.3388 237.5,46.5C 235.181,47.167 232.847,47.3336 230.5,47C 229,45.5 227.5,44 226,42.5C 221.345,32.6348 220.845,22.6348 224.5,12.5 Z"/></g>
<g><path style="opacity:1" fill="#ce98fa" d="M 226.5,15.5 C 228.262,15.3573 229.929,15.6906 231.5,16.5C 231.969,24.6128 232.969,32.6128 234.5,40.5C 233.715,43.1531 232.215,43.8198 230,42.5C 228.483,38.7612 226.816,35.0945 225,31.5C 224.52,26.0812 225.02,20.7479 226.5,15.5 Z"/></g>
<g><path style="opacity:0.329" fill="#d7c3ee" d="M 239.5,45.5 C 241.144,45.2865 242.644,45.6198 244,46.5C 244.758,48.7695 244.591,50.9361 243.5,53C 240.042,53.676 238.042,52.176 237.5,48.5C 238.193,47.4822 238.859,46.4822 239.5,45.5 Z"/></g>
<g><path style="opacity:0.935" fill="#c4d8f8" d="M 132.5,56.5 C 132.328,57.4916 132.662,58.1583 133.5,58.5C 129.832,63.3198 125.498,63.8198 120.5,60C 114.181,53.2221 112.347,45.3888 115,36.5C 116.463,34.1147 118.629,33.1147 121.5,33.5C 123.1,33.5507 124.6,33.8841 126,34.5C 127.081,39.4762 128.081,44.4762 129,49.5C 130.705,51.5766 131.872,53.91 132.5,56.5 Z"/></g>
<g><path style="opacity:1" fill="#b5d3fc" d="M 120.5,35.5 C 122.375,36.6417 124.041,37.3084 125.5,37.5C 123.051,44.5189 124.384,50.8523 129.5,56.5C 128.855,57.646 128.022,58.646 127,59.5C 116.385,53.7038 114.219,45.7038 120.5,35.5 Z"/></g>
<g><path style="opacity:0.38" fill="#c7bfee" d="M 133.5,58.5 C 132.662,58.1583 132.328,57.4916 132.5,56.5C 137.696,53.7619 141.029,55.4285 142.5,61.5C 141.904,64.2464 140.237,65.0798 137.5,64C 136.512,61.833 135.179,59.9997 133.5,58.5 Z"/></g>
<g><path style="opacity:0.302" fill="#c5d3e8" d="M 270.5,59.5 C 274.829,60.982 275.496,63.482 272.5,67C 271.128,67.4017 269.795,67.9017 268.5,68.5C 265.81,64.9132 266.477,61.9132 270.5,59.5 Z"/></g>
<g><path style="opacity:0.6" fill="#d8d0ed" d="M 229.5,72.5 C 233.935,72.7521 235.268,74.9188 233.5,79C 228.57,79.427 227.237,77.2604 229.5,72.5 Z"/></g>
<g><path style="opacity:0.757" fill="#cec4f0" d="M 206.5,74.5 C 209.634,75.9915 211.634,78.4915 212.5,82C 211.591,84.3193 209.925,84.9859 207.5,84C 205.282,81.8428 204.115,79.3428 204,76.5C 204.995,75.9341 205.828,75.2674 206.5,74.5 Z"/></g>
<g><path style="opacity:0.165" fill="#c0d0ec" d="M 250.5,75.5 C 254.451,77.0895 255.285,79.7561 253,83.5C 250.687,85.0374 248.187,85.5374 245.5,85C 243.993,84.1627 243.493,82.9961 244,81.5C 245.914,79.1435 248.081,77.1435 250.5,75.5 Z"/></g>
<g><path style="opacity:0.702" fill="#ccd7f0" d="M 131.5,85.5 C 136.56,87.1836 136.56,89.1836 131.5,91.5C 127.874,89.7115 127.874,87.7115 131.5,85.5 Z"/></g>
<g><path style="opacity:0.525" fill="#d0bfe6" d="M 295.5,88.5 C 299.677,87.8416 301.177,89.5082 300,93.5C 298.451,96.0026 296.784,96.0026 295,93.5C 294.36,91.735 294.527,90.0683 295.5,88.5 Z"/></g>
<g><path style="opacity:0.141" fill="#d9c2ef" d="M 352.5,86.5 C 354.346,86.2222 355.68,86.8888 356.5,88.5C 355.764,90.5405 354.931,92.5405 354,94.5C 351.175,96.0059 349.342,95.1726 348.5,92C 349.296,89.7145 350.629,87.8812 352.5,86.5 Z"/></g>
<g><path style="opacity:0.012" fill="#c8c5ff" d="M 305.5,92.5 C 306.525,92.8966 306.692,93.5632 306,94.5C 305.536,93.9056 305.369,93.2389 305.5,92.5 Z"/></g>
<g><path style="opacity:1" fill="#bfd5f8" d="M 334.5,96.5 C 332.281,95.1204 330.281,95.4537 328.5,97.5C 327.285,100.62 326.951,103.62 327.5,106.5C 327.167,106.5 326.833,106.5 326.5,106.5C 323.99,106.927 321.657,107.593 319.5,108.5C 314.833,107.5 310.167,106.5 305.5,105.5C 305.005,97.6445 308.672,93.8112 316.5,94C 321.258,91.8733 325.758,89.3733 330,86.5C 337.2,87.7655 338.7,91.0988 334.5,96.5 Z"/></g>
<g><path style="opacity:0.718" fill="#c8d5ee" d="M 368.5,94.5 C 371.518,94.3354 374.518,94.502 377.5,95C 378.727,96.5874 378.394,97.9207 376.5,99C 373.938,100.141 371.272,100.974 368.5,101.5C 366.67,101.42 365.337,100.587 364.5,99C 365.344,96.9933 366.677,95.4933 368.5,94.5 Z"/></g>
<g><path style="opacity:0.31" fill="#c3b9f0" d="M 334.5,96.5 C 335.901,99.877 335.735,103.21 334,106.5C 331.973,106.986 329.807,106.986 327.5,106.5C 326.951,103.62 327.285,100.62 328.5,97.5C 330.281,95.4537 332.281,95.1204 334.5,96.5 Z"/></g>
<g><path style="opacity:0.482" fill="#c5ceee" d="M 108.5,92.5 C 111.697,93.1124 113.031,95.1124 112.5,98.5C 110.801,98.3398 109.134,98.5065 107.5,99C 105.74,101.483 103.573,101.983 101,100.5C 100.219,99.0563 100.386,97.723 101.5,96.5C 103.444,95.8108 105.444,95.3108 107.5,95C 108.252,94.3292 108.586,93.4959 108.5,92.5 Z"/></g>
<g><path style="opacity:0.525" fill="#d2dff5" d="M 15.5,99.5 C 20.3394,98.6766 22.6728,100.677 22.5,105.5C 16.7761,106.761 14.4428,104.761 15.5,99.5 Z"/></g>
<g><path style="opacity:0.276" fill="#b9cdf0" d="M 257.5,124.5 C 256.828,125.267 255.995,125.934 255,126.5C 254.196,125.196 253.029,124.529 251.5,124.5C 249.167,126.167 246.833,127.833 244.5,129.5C 243.985,125.547 243.819,121.547 244,117.5C 242.828,115.189 241.328,113.189 239.5,111.5C 239.611,110.883 239.944,110.383 240.5,110C 239.584,109.722 238.918,109.222 238.5,108.5C 242.766,108.465 243.599,107.465 241,105.5C 240.329,106.252 239.496,106.586 238.5,106.5C 236.87,107.082 235.037,107.082 233,106.5C 231.342,106.675 230.009,107.342 229,108.5C 228.18,106.535 227.68,104.535 227.5,102.5C 229.392,98.7673 231.059,94.934 232.5,91C 234.844,90.1628 236.844,88.8294 238.5,87C 240.81,86.5034 243.143,86.3367 245.5,86.5C 245.923,89.7691 245.923,92.9358 245.5,96C 248.432,100.333 249.432,105 248.5,110C 249.329,111.816 250.163,113.649 251,115.5C 255.423,112.24 257.923,113.407 258.5,119C 255.342,120.696 255.008,122.529 257.5,124.5 Z M 238.5,108.5 C 238.5,107.833 238.5,107.167 238.5,106.5C 239.496,106.586 240.329,106.252 241,105.5C 243.599,107.465 242.766,108.465 238.5,108.5 Z"/></g>
<g><path style="opacity:0.541" fill="#c1d5ef" d="M 196.5,101.5 C 201.547,101.376 203.38,103.709 202,108.5C 197.542,112.734 194.042,112.068 191.5,106.5C 191.667,105.833 191.833,105.167 192,104.5C 193.652,103.601 195.152,102.601 196.5,101.5 Z"/></g>
<g><path style="opacity:0.467" fill="#b0bfe8" d="M 298.5,106.5 C 300.167,106.5 301.833,106.5 303.5,106.5C 304.822,111.993 302.822,114.493 297.5,114C 294.709,111.016 295.042,108.516 298.5,106.5 Z"/></g>
<g><path style="opacity:0.243" fill="#b3c4e6" d="M 280.5,109.5 C 278.926,111.102 278.259,113.102 278.5,115.5C 275.636,115.648 272.636,115.315 269.5,114.5C 268.071,115.935 266.405,116.935 264.5,117.5C 262.895,116.57 261.395,116.57 260,117.5C 259.712,114.528 260.545,111.861 262.5,109.5C 265.486,107.383 268.153,104.883 270.5,102C 273.88,101.062 276.88,101.729 279.5,104C 280.406,105.699 280.739,107.533 280.5,109.5 Z"/></g>
<g><path style="opacity:0.376" fill="#c8b1ef" d="M 326.5,106.5 C 326.815,110.371 326.482,114.038 325.5,117.5C 325.167,117.5 324.833,117.5 324.5,117.5C 324.66,115.801 324.494,114.134 324,112.5C 323.439,111.978 322.772,111.645 322,111.5C 319.373,113.46 317.04,115.794 315,118.5C 313.989,117.663 312.822,117.33 311.5,117.5C 314.475,114.823 317.141,111.823 319.5,108.5C 321.657,107.593 323.99,106.927 326.5,106.5 Z"/></g>
<g><path style="opacity:1" fill="#ccadf5" d="M 174.5,124.5 C 174.5,125.5 174.5,126.5 174.5,127.5C 173.833,127.5 173.167,127.5 172.5,127.5C 171.943,119.945 167.943,115.611 160.5,114.5C 159.796,120.116 161.796,124.449 166.5,127.5C 166.5,127.833 166.5,128.167 166.5,128.5C 165.5,128.5 164.5,128.5 163.5,128.5C 163.5,127.833 163.167,127.5 162.5,127.5C 160.317,124.467 158.65,121.134 157.5,117.5C 157.626,114.644 158.96,112.644 161.5,111.5C 168.669,112.498 172.502,116.498 173,123.5C 173.383,124.056 173.883,124.389 174.5,124.5 Z"/></g>
<g><path style="opacity:0.48" fill="#b5bceb" d="M 227.5,102.5 C 227.68,104.535 228.18,106.535 229,108.5C 230.009,107.342 231.342,106.675 233,106.5C 235.037,107.082 236.87,107.082 238.5,106.5C 238.5,107.167 238.5,107.833 238.5,108.5C 238.918,109.222 239.584,109.722 240.5,110C 239.944,110.383 239.611,110.883 239.5,111.5C 238.038,110.542 236.705,109.376 235.5,108C 234.216,107.316 233.049,107.483 232,108.5C 229.378,113.101 228.211,118.101 228.5,123.5C 226.357,116.672 226.024,109.672 227.5,102.5 Z"/></g>
<g><path style="opacity:1" fill="#ca97fa" d="M 172.5,127.5 C 170.5,127.5 168.5,127.5 166.5,127.5C 161.796,124.449 159.796,120.116 160.5,114.5C 167.943,115.611 171.943,119.945 172.5,127.5 Z"/></g>
<g><path style="opacity:1" fill="#c993fd" d="M 239.5,126.5 C 238.292,127.234 236.959,127.567 235.5,127.5C 232.914,126.513 231.581,124.513 231.5,121.5C 231.022,118.722 232.022,116.722 234.5,115.5C 236.007,117.69 238.007,119.024 240.5,119.5C 240.552,121.903 240.219,124.236 239.5,126.5 Z"/></g>
<g><path style="opacity:1" fill="#b99bf9" d="M 239.5,116.5 C 240.15,116.804 240.817,117.137 241.5,117.5C 242.492,121.783 242.826,126.116 242.5,130.5C 245.237,130.599 247.904,130.265 250.5,129.5C 251.833,129.833 253.167,130.167 254.5,130.5C 255.167,130.5 255.5,130.833 255.5,131.5C 253.738,131.643 252.071,131.309 250.5,130.5C 244.535,135.009 240.869,133.676 239.5,126.5C 240.219,124.236 240.552,121.903 240.5,119.5C 238.007,119.024 236.007,117.69 234.5,115.5C 232.022,116.722 231.022,118.722 231.5,121.5C 230.371,119.372 230.204,117.039 231,114.5C 232.252,112.999 233.252,111.332 234,109.5C 234.889,112.628 236.722,114.961 239.5,116.5 Z"/></g>
<g><path style="opacity:0.733" fill="#c3d8f4" d="M 184.5,113.5 C 187.181,113.462 189.681,114.129 192,115.5C 199.835,112.508 203.668,115.175 203.5,123.5C 204.5,123.5 205.5,123.5 206.5,123.5C 206.535,118.622 208.868,117.289 213.5,119.5C 216.965,122.377 217.299,125.544 214.5,129C 211.47,128.49 208.47,128.656 205.5,129.5C 201.858,127.413 197.858,125.913 193.5,125C 191.248,122.113 188.248,120.78 184.5,121C 181.914,118.506 181.914,116.006 184.5,113.5 Z"/></g>
<g><path style="opacity:0.996" fill="#b99afa" d="M 324.5,117.5 C 321.252,118.832 317.918,120.832 314.5,123.5C 312.328,126.171 310.995,128.837 310.5,131.5C 310.167,130.667 309.833,129.833 309.5,129C 311.072,126.081 311.739,122.915 311.5,119.5C 311.5,118.833 311.5,118.167 311.5,117.5C 312.822,117.33 313.989,117.663 315,118.5C 317.04,115.794 319.373,113.46 322,111.5C 322.772,111.645 323.439,111.978 324,112.5C 324.494,114.134 324.66,115.801 324.5,117.5 Z"/></g>
<g><path style="opacity:1" fill="#c2d7f8" d="M 162.5,127.5 C 163.167,127.5 163.5,127.833 163.5,128.5C 160.698,131.467 157.698,134.3 154.5,137C 153.5,137.667 152.5,137.667 151.5,137C 152.279,129.662 149.612,123.996 143.5,120C 141.866,119.506 140.199,119.34 138.5,119.5C 138.26,122.579 138.593,125.579 139.5,128.5C 138.544,130.075 137.877,131.742 137.5,133.5C 136.685,132.571 135.852,131.571 135,130.5C 134.639,127.475 134.139,124.475 133.5,121.5C 134.813,115.68 138.146,113.847 143.5,116C 146.965,118.463 150.131,121.296 153,124.5C 153.182,127.226 153.682,129.893 154.5,132.5C 157.568,131.309 160.235,129.642 162.5,127.5 Z"/></g>
<g><path style="opacity:0.786" fill="#c9b5ea" d="M 275.5,120.5 C 274.502,120.587 273.335,120.92 272,121.5C 271.51,123.545 271.677,125.545 272.5,127.5C 268.664,125.55 267.664,122.55 269.5,118.5C 272.232,116.966 274.232,117.633 275.5,120.5 Z"/></g>
<g><path style="opacity:0.4" fill="#c6a5f4" d="M 275.5,120.5 C 275.833,120.5 276.167,120.5 276.5,120.5C 275.652,122.312 275.652,123.812 276.5,125C 278.891,125.287 281.224,125.787 283.5,126.5C 284.73,131.435 282.897,133.102 278,131.5C 277.498,126.998 275.665,125.998 272.5,128.5C 272.5,128.167 272.5,127.833 272.5,127.5C 271.677,125.545 271.51,123.545 272,121.5C 273.335,120.92 274.502,120.587 275.5,120.5 Z"/></g>
<g><path style="opacity:1" fill="#b3bff9" d="M 326.5,120.5 C 326.607,126.536 323.774,128.536 318,126.5C 317.333,127.167 316.667,127.833 316,128.5C 315.822,132.212 314.655,135.546 312.5,138.5C 312.709,139.086 313.043,139.586 313.5,140C 315.473,140.495 317.473,140.662 319.5,140.5C 318.865,137.507 318.699,134.507 319,131.5C 320.667,130.167 322.333,130.167 324,131.5C 324.939,134.121 325.772,136.788 326.5,139.5C 327.726,138.637 329.06,138.637 330.5,139.5C 330.768,141.099 330.434,142.432 329.5,143.5C 328.52,139.674 327.687,139.674 327,143.5C 326.667,142.5 326.333,141.5 326,140.5C 322.883,141.304 319.716,141.97 316.5,142.5C 312.114,139.11 309.28,140.11 308,145.5C 306.708,144.209 305.542,144.209 304.5,145.5C 301.631,143.74 301.131,141.406 303,138.5C 304.461,139.883 305.294,139.549 305.5,137.5C 306.29,138.609 306.79,139.942 307,141.5C 309.987,140.724 310.82,139.057 309.5,136.5C 313.504,134.826 315.171,131.826 314.5,127.5C 315.962,126.542 317.295,125.376 318.5,124C 320.5,124 322.5,124 324.5,124C 325.085,122.698 325.751,121.531 326.5,120.5 Z"/></g>
<g><path style="opacity:0.486" fill="#c4daf8" d="M 217.5,139.5 C 216.846,145.713 213.846,147.047 208.5,143.5C 207.609,142.89 206.609,142.557 205.5,142.5C 205.288,140.616 204.288,139.283 202.5,138.5C 198.893,137.511 195.226,137.177 191.5,137.5C 191.045,134.538 189.879,131.871 188,129.5C 185.595,128.726 183.095,128.226 180.5,128C 180.833,127.667 181.167,127.333 181.5,127C 180.584,126.722 179.918,126.222 179.5,125.5C 179.56,124.957 179.893,124.624 180.5,124.5C 183.109,125.23 185.776,125.73 188.5,126C 191.008,129.338 193.675,132.505 196.5,135.5C 203.456,130.303 207.789,131.803 209.5,140C 211.49,139.862 213.49,139.362 215.5,138.5C 216.416,138.543 217.083,138.876 217.5,139.5 Z"/></g>
<g><path style="opacity:1" fill="#b3d1fd" d="M 163.5,128.5 C 164.5,128.5 165.5,128.5 166.5,128.5C 166.414,129.496 166.748,130.329 167.5,131C 172.169,132.47 175.169,135.47 176.5,140C 177.793,140.49 179.127,140.657 180.5,140.5C 180.775,134.943 178.775,130.609 174.5,127.5C 174.5,126.5 174.5,125.5 174.5,124.5C 176.042,125.301 177.708,125.634 179.5,125.5C 179.918,126.222 180.584,126.722 181.5,127C 181.167,127.333 180.833,127.667 180.5,128C 183.095,128.226 185.595,128.726 188,129.5C 189.879,131.871 191.045,134.538 191.5,137.5C 195.226,137.177 198.893,137.511 202.5,138.5C 204.288,139.283 205.288,140.616 205.5,142.5C 203.052,142.085 201.719,143.085 201.5,145.5C 202.199,149.726 204.366,151.726 208,151.5C 208.497,148.854 208.664,146.187 208.5,143.5C 213.846,147.047 216.846,145.713 217.5,139.5C 221.019,139.741 223.685,138.407 225.5,135.5C 227.729,136.055 229.395,137.389 230.5,139.5C 230.119,141.741 229.952,144.074 230,146.5C 228.644,145.62 227.144,145.286 225.5,145.5C 225.421,144.042 224.921,142.708 224,141.5C 222.266,142.249 220.433,142.749 218.5,143C 217.892,144.231 217.559,145.564 217.5,147C 218.209,149.871 218.709,152.705 219,155.5C 217.174,157.074 215.007,157.907 212.5,158C 209.849,161.447 206.516,162.281 202.5,160.5C 201.622,155.787 199.289,151.954 195.5,149C 188.909,146.756 186.409,148.923 188,155.5C 189.736,158.739 192.236,161.073 195.5,162.5C 196.261,163.391 197.261,164.058 198.5,164.5C 199.76,166.353 199.76,168.186 198.5,170C 194.833,170.667 191.167,170.667 187.5,170C 186.529,168.519 185.196,167.685 183.5,167.5C 181.964,164.908 179.631,163.908 176.5,164.5C 176.215,166.288 176.548,167.955 177.5,169.5C 179.326,171.91 181.66,173.577 184.5,174.5C 184.921,176.91 186.254,178.743 188.5,180C 187.02,181.299 186.354,182.966 186.5,185C 186.788,187.187 187.122,189.354 187.5,191.5C 189.5,191.5 191.5,191.5 193.5,191.5C 193.183,188.428 193.516,185.428 194.5,182.5C 195.417,183.127 196.417,183.461 197.5,183.5C 198.117,183.611 198.617,183.944 199,184.5C 199.498,187.817 199.665,191.15 199.5,194.5C 201.007,200.552 202.007,206.719 202.5,213C 201.654,215.852 200.154,218.352 198,220.5C 197.393,224.537 197.56,228.537 198.5,232.5C 190.657,230.412 187.991,233.079 190.5,240.5C 184.125,241.048 181.959,244.382 184,250.5C 192.757,252.48 201.257,255.147 209.5,258.5C 209.554,260.632 210.554,261.965 212.5,262.5C 211.449,263.222 210.782,264.222 210.5,265.5C 207.405,266.119 207.071,267.119 209.5,268.5C 210.965,267.391 211.965,267.891 212.5,270C 211.906,270.464 211.239,270.631 210.5,270.5C 209.761,270.369 209.094,270.536 208.5,271C 210.607,272.264 211.607,274.097 211.5,276.5C 213.36,277.071 215.027,277.071 216.5,276.5C 216.369,280.285 215.702,283.952 214.5,287.5C 217.29,287.778 219.79,287.111 222,285.5C 222.772,285.645 223.439,285.978 224,286.5C 224.198,284.618 224.698,282.952 225.5,281.5C 225.372,283.655 225.872,285.655 227,287.5C 229.18,288.346 230.68,289.846 231.5,292C 230.833,295.166 229.5,298 227.5,300.5C 229.104,302.179 229.771,304.179 229.5,306.5C 230.833,306.5 232.167,306.5 233.5,306.5C 233.5,306.833 233.5,307.167 233.5,307.5C 231.143,307.337 228.81,307.503 226.5,308C 227.609,309.813 226.942,310.646 224.5,310.5C 224.5,312.167 224.5,313.833 224.5,315.5C 222.255,314.172 221.922,312.339 223.5,310C 221.668,309.252 220.001,308.252 218.5,307C 215.104,307.454 211.771,307.287 208.5,306.5C 208.5,305.833 208.833,305.5 209.5,305.5C 210.833,305.167 210.833,304.833 209.5,304.5C 207.591,301.17 204.591,299.836 200.5,300.5C 195.938,298.774 192.438,295.774 190,291.5C 186.559,292.382 183.059,292.716 179.5,292.5C 177.883,291.962 176.216,291.629 174.5,291.5C 174.33,290.178 174.663,289.011 175.5,288C 174.328,287.581 173.328,286.915 172.5,286C 174.275,282.629 173.275,280.462 169.5,279.5C 165.221,280.274 160.887,280.774 156.5,281C 155.67,282.747 154.67,284.413 153.5,286C 153.57,286.765 153.903,287.265 154.5,287.5C 154.5,287.833 154.5,288.167 154.5,288.5C 153.504,288.414 152.671,288.748 152,289.5C 151.803,287.139 150.636,285.472 148.5,284.5C 149.951,283.094 151.284,281.594 152.5,280C 150.947,278.903 149.614,277.57 148.5,276C 147.216,275.316 146.049,275.483 145,276.5C 144.802,274.089 143.636,272.423 141.5,271.5C 139.59,272.548 137.756,272.548 136,271.5C 135.932,267.305 136.432,263.139 137.5,259C 136.257,253.816 132.924,251.483 127.5,252C 129.881,250.753 129.547,250.42 126.5,251C 125.667,251.833 124.833,252.667 124,253.5C 123.667,256.167 123.333,258.833 123,261.5C 118.232,263.969 114.398,267.469 111.5,272C 105.759,273.353 104.759,272.353 108.5,269C 108.167,268.667 107.833,268.333 107.5,268C 109.715,266.956 112.048,266.29 114.5,266C 115.167,264.333 115.833,262.667 116.5,261C 114.283,259.732 112.283,258.232 110.5,256.5C 114.243,255.208 117.909,253.708 121.5,252C 120.666,248.335 119.333,244.835 117.5,241.5C 120.633,238.018 122.967,234.018 124.5,229.5C 123.837,226.194 123.337,222.861 123,219.5C 120.733,216.228 118.067,213.228 115,210.5C 116.486,205.297 114.986,201.13 110.5,198C 111.833,197.333 111.833,196.667 110.5,196C 108.423,195.808 106.423,195.308 104.5,194.5C 105.628,193.738 106.795,193.071 108,192.5C 109.846,189.827 110.846,187.161 111,184.5C 114.198,181.907 117.531,179.574 121,177.5C 121.333,177.833 121.667,178.167 122,178.5C 123.057,176.781 123.89,174.947 124.5,173C 127.754,172.75 130.754,171.75 133.5,170C 132.934,169.005 132.267,168.172 131.5,167.5C 131.5,166.5 131.5,165.5 131.5,164.5C 134.139,166.177 135.806,165.51 136.5,162.5C 135.781,160.272 134.448,158.439 132.5,157C 133.056,156.617 133.389,156.117 133.5,155.5C 136.833,155.5 140.167,155.5 143.5,155.5C 145.435,154.85 147.435,154.517 149.5,154.5C 150.158,149.826 148.158,147.16 143.5,146.5C 142.286,144.851 140.953,143.185 139.5,141.5C 137.604,140.725 135.937,139.725 134.5,138.5C 136.677,138.586 138.677,139.253 140.5,140.5C 140.833,140 141.167,139.5 141.5,139C 140.293,136.977 138.96,135.144 137.5,133.5C 137.877,131.742 138.544,130.075 139.5,128.5C 138.593,125.579 138.26,122.579 138.5,119.5C 140.199,119.34 141.866,119.506 143.5,120C 149.612,123.996 152.279,129.662 151.5,137C 152.5,137.667 153.5,137.667 154.5,137C 157.698,134.3 160.698,131.467 163.5,128.5 Z M 128.5,256.5 C 133.116,257.041 133.449,258.374 129.5,260.5C 127.824,259.272 127.491,257.939 128.5,256.5 Z"/></g>
<g><path style="opacity:1" fill="#bcb5f3" d="M 239.5,111.5 C 241.328,113.189 242.828,115.189 244,117.5C 243.819,121.547 243.985,125.547 244.5,129.5C 246.833,127.833 249.167,126.167 251.5,124.5C 253.029,124.529 254.196,125.196 255,126.5C 255.995,125.934 256.828,125.267 257.5,124.5C 259.677,124.414 261.677,123.747 263.5,122.5C 265.9,124.296 267.567,126.63 268.5,129.5C 268.565,129.938 268.399,130.272 268,130.5C 265.173,128.039 261.84,127.039 258,127.5C 255.833,127.667 253.667,127.833 251.5,128C 250.944,128.383 250.611,128.883 250.5,129.5C 247.904,130.265 245.237,130.599 242.5,130.5C 242.826,126.116 242.492,121.783 241.5,117.5C 240.817,117.137 240.15,116.804 239.5,116.5C 239.5,114.833 239.5,113.167 239.5,111.5 Z"/></g>
<g><path style="opacity:1" fill="#a6a2f8" d="M 324.5,117.5 C 324.833,117.5 325.167,117.5 325.5,117.5C 325.833,118.167 326.167,118.833 326.5,119.5C 326.5,119.833 326.5,120.167 326.5,120.5C 325.751,121.531 325.085,122.698 324.5,124C 322.5,124 320.5,124 318.5,124C 317.295,125.376 315.962,126.542 314.5,127.5C 313.694,128.997 313.028,130.664 312.5,132.5C 310.579,133.641 308.579,133.808 306.5,133C 307.327,131.107 307.327,128.941 306.5,126.5C 307.5,124.833 308.833,123.5 310.5,122.5C 310.376,121.893 310.043,121.56 309.5,121.5C 309.833,120.5 310.5,119.833 311.5,119.5C 311.739,122.915 311.072,126.081 309.5,129C 309.833,129.833 310.167,130.667 310.5,131.5C 310.995,128.837 312.328,126.171 314.5,123.5C 317.918,120.832 321.252,118.832 324.5,117.5 Z"/></g>
<g><path style="opacity:1" fill="#bfaaf8" d="M 239.5,111.5 C 239.5,113.167 239.5,114.833 239.5,116.5C 236.722,114.961 234.889,112.628 234,109.5C 233.252,111.332 232.252,112.999 231,114.5C 230.204,117.039 230.371,119.372 231.5,121.5C 231.581,124.513 232.914,126.513 235.5,127.5C 234.317,132.754 233.65,138.088 233.5,143.5C 233.795,145.735 233.461,147.735 232.5,149.5C 232.331,142.813 231.831,136.146 231,129.5C 230.617,128.944 230.117,128.611 229.5,128.5C 228.962,126.883 228.629,125.216 228.5,123.5C 228.211,118.101 229.378,113.101 232,108.5C 233.049,107.483 234.216,107.316 235.5,108C 236.705,109.376 238.038,110.542 239.5,111.5 Z"/></g>
<g><path style="opacity:0.904" fill="#cda8f9" d="M 268.5,129.5 C 269.167,129.5 269.5,129.833 269.5,130.5C 270.315,131.837 271.482,132.837 273,133.5C 273.315,135.586 273.815,137.586 274.5,139.5C 274.5,139.833 274.5,140.167 274.5,140.5C 273.833,140.5 273.167,140.5 272.5,140.5C 270.749,133.433 266.082,129.433 258.5,128.5C 256.645,128.34 255.312,129.007 254.5,130.5C 253.167,130.167 251.833,129.833 250.5,129.5C 250.611,128.883 250.944,128.383 251.5,128C 253.667,127.833 255.833,127.667 258,127.5C 261.84,127.039 265.173,128.039 268,130.5C 268.399,130.272 268.565,129.938 268.5,129.5 Z"/></g>
<g><path style="opacity:1" fill="#a994fb" d="M 239.5,126.5 C 240.869,133.676 244.535,135.009 250.5,130.5C 252.071,131.309 253.738,131.643 255.5,131.5C 255.5,133.5 255.5,135.5 255.5,137.5C 261.027,138.424 266.36,139.758 271.5,141.5C 268.206,143.097 265.206,142.597 262.5,140C 257.956,139.853 253.623,139.02 249.5,137.5C 245.823,137.2 244.156,138.866 244.5,142.5C 243.167,142.5 241.833,142.5 240.5,142.5C 239.594,146.623 237.594,147.29 234.5,144.5C 234.5,143.833 234.167,143.5 233.5,143.5C 233.65,138.088 234.317,132.754 235.5,127.5C 236.959,127.567 238.292,127.234 239.5,126.5 Z"/></g>
<g><path style="opacity:0.141" fill="#c0aeed" d="M 295.5,136.5 C 293.8,136.626 292.3,137.293 291,138.5C 287.396,137.336 284.229,136.336 281.5,135.5C 280.085,134.711 278.585,134.044 277,133.5C 274.5,134.158 274,135.491 275.5,137.5C 276.506,138.396 276.506,139.062 275.5,139.5C 275.167,139.5 274.833,139.5 274.5,139.5C 273.815,137.586 273.315,135.586 273,133.5C 271.482,132.837 270.315,131.837 269.5,130.5C 271.027,130.573 272.027,129.906 272.5,128.5C 275.665,125.998 277.498,126.998 278,131.5C 282.897,133.102 284.73,131.435 283.5,126.5C 281.224,125.787 278.891,125.287 276.5,125C 275.652,123.812 275.652,122.312 276.5,120.5C 278.213,119.365 278.88,117.698 278.5,115.5C 278.259,113.102 278.926,111.102 280.5,109.5C 283.41,108.186 285.91,108.853 288,111.5C 287.514,118.891 286.847,126.224 286,133.5C 286.333,133.833 286.667,134.167 287,134.5C 291.545,127.401 294.378,128.068 295.5,136.5 Z M 281.5,135.5 C 279.786,136.738 277.786,137.405 275.5,137.5C 274,135.491 274.5,134.158 277,133.5C 278.585,134.044 280.085,134.711 281.5,135.5 Z"/></g>
<g><path style="opacity:0.812" fill="#cea6f6" d="M 280.5,111.5 C 282.5,111.5 284.5,111.5 286.5,111.5C 286.5,113.5 286.5,115.5 286.5,117.5C 280.591,118.926 278.591,116.926 280.5,111.5 Z"/></g>
<g><path style="opacity:1" fill="#9ca3f8" d="M 166.5,127.5 C 168.5,127.5 170.5,127.5 172.5,127.5C 173.167,127.5 173.833,127.5 174.5,127.5C 178.775,130.609 180.775,134.943 180.5,140.5C 179.127,140.657 177.793,140.49 176.5,140C 175.169,135.47 172.169,132.47 167.5,131C 166.748,130.329 166.414,129.496 166.5,128.5C 166.5,128.167 166.5,127.833 166.5,127.5 Z"/></g>
<g><path style="opacity:1" fill="#c593f8" d="M 272.5,140.5 C 272.5,141.167 272.167,141.5 271.5,141.5C 266.36,139.758 261.027,138.424 255.5,137.5C 255.5,135.5 255.5,133.5 255.5,131.5C 255.5,130.833 255.167,130.5 254.5,130.5C 255.312,129.007 256.645,128.34 258.5,128.5C 266.082,129.433 270.749,133.433 272.5,140.5 Z"/></g>
<g><path style="opacity:1" fill="#b6cffb" d="M 326.5,119.5 C 331.437,119.667 333.937,122.334 334,127.5C 335.255,132.262 334.088,136.262 330.5,139.5C 329.06,138.637 327.726,138.637 326.5,139.5C 325.772,136.788 324.939,134.121 324,131.5C 322.333,130.167 320.667,130.167 319,131.5C 318.699,134.507 318.865,137.507 319.5,140.5C 317.473,140.662 315.473,140.495 313.5,140C 313.043,139.586 312.709,139.086 312.5,138.5C 314.655,135.546 315.822,132.212 316,128.5C 316.667,127.833 317.333,127.167 318,126.5C 323.774,128.536 326.607,126.536 326.5,120.5C 326.5,120.167 326.5,119.833 326.5,119.5 Z"/></g>
<g><path style="opacity:0.812" fill="#b3b2f3" d="M 309.5,121.5 C 310.043,121.56 310.376,121.893 310.5,122.5C 308.833,123.5 307.5,124.833 306.5,126.5C 307.327,128.941 307.327,131.107 306.5,133C 308.579,133.808 310.579,133.641 312.5,132.5C 313.028,130.664 313.694,128.997 314.5,127.5C 315.171,131.826 313.504,134.826 309.5,136.5C 310.82,139.057 309.987,140.724 307,141.5C 306.79,139.942 306.29,138.609 305.5,137.5C 302.126,131.044 303.46,125.711 309.5,121.5 Z"/></g>
<g><path style="opacity:1" fill="#9695fc" d="M 271.5,141.5 C 272.167,141.5 272.5,141.167 272.5,140.5C 273.167,140.5 273.833,140.5 274.5,140.5C 274.383,142.484 275.05,144.15 276.5,145.5C 279.447,146.423 282.447,147.089 285.5,147.5C 285.325,149.621 285.659,151.621 286.5,153.5C 286.881,155.942 286.214,156.609 284.5,155.5C 282.079,157.176 281.912,159.176 284,161.5C 287.212,164.438 291.045,166.105 295.5,166.5C 291.286,174.104 288.953,182.271 288.5,191C 288.707,192.95 289.707,194.116 291.5,194.5C 292.167,194.833 292.833,195.167 293.5,195.5C 293.685,197.89 295.018,198.89 297.5,198.5C 304.001,196.695 310.668,196.695 317.5,198.5C 318.681,200.198 318.681,201.865 317.5,203.5C 315.867,205.503 313.867,206.836 311.5,207.5C 311.393,209.903 312.393,211.736 314.5,213C 319.383,214.072 324.05,215.739 328.5,218C 332.259,221.743 333.426,226.243 332,231.5C 328.552,234.464 325.052,237.297 321.5,240C 318.167,240.667 314.833,240.667 311.5,240C 310.069,239.535 308.903,238.701 308,237.5C 306.543,233.116 304.71,228.949 302.5,225C 305,223.167 307.5,221.333 310,219.5C 310.667,218.167 310.667,216.833 310,215.5C 305.278,212.267 301.111,208.6 297.5,204.5C 292.586,206.484 291.586,209.65 294.5,214C 294.22,215.395 293.553,216.562 292.5,217.5C 289.07,217.917 285.403,218.417 281.5,219C 278.823,221.345 276.49,224.012 274.5,227C 273.101,227.595 271.768,227.428 270.5,226.5C 268.102,229.199 265.102,230.533 261.5,230.5C 258.481,227.29 254.814,225.79 250.5,226C 248.032,227.588 247.866,229.422 250,231.5C 253.006,233.52 254.839,236.187 255.5,239.5C 259.555,239.648 260.055,240.648 257,242.5C 256.261,241.426 255.261,240.759 254,240.5C 252.333,241.5 250.667,242.5 249,243.5C 245.405,242.562 241.905,241.562 238.5,240.5C 237.167,240.833 235.833,241.167 234.5,241.5C 233.307,243.527 231.64,245.027 229.5,246C 223.606,247.027 217.94,248.527 212.5,250.5C 212.5,251.833 212.5,253.167 212.5,254.5C 212.5,255.167 212.167,255.5 211.5,255.5C 212.124,250.982 212.124,246.648 211.5,242.5C 211.714,240.856 211.38,239.356 210.5,238C 208.236,237.764 206.069,237.264 204,236.5C 203.667,234.167 203.333,231.833 203,229.5C 202.617,228.944 202.117,228.611 201.5,228.5C 202.601,223.402 204.601,218.735 207.5,214.5C 206.327,209.011 204.994,203.677 203.5,198.5C 201.142,193.824 199.975,188.824 200,183.5C 197.573,180.43 194.406,178.596 190.5,178C 188.981,176.649 187.648,175.149 186.5,173.5C 189.428,172.516 192.428,172.183 195.5,172.5C 200.815,172.503 202.815,169.836 201.5,164.5C 205.078,164.451 208.411,163.785 211.5,162.5C 214.385,160.478 217.385,158.812 220.5,157.5C 222.285,157.074 223.285,155.908 223.5,154C 222.657,152.065 222.657,150.231 223.5,148.5C 225.167,148.833 226.167,149.833 226.5,151.5C 222.609,158.291 224.609,160.958 232.5,159.5C 231.987,155.228 232.987,151.395 235.5,148C 235.011,146.862 234.678,145.695 234.5,144.5C 237.594,147.29 239.594,146.623 240.5,142.5C 241.833,142.5 243.167,142.5 244.5,142.5C 244.156,138.866 245.823,137.2 249.5,137.5C 253.623,139.02 257.956,139.853 262.5,140C 265.206,142.597 268.206,143.097 271.5,141.5 Z"/></g>
<g><path style="opacity:0.8" fill="#d1aaf5" d="M 352.5,139.5 C 350.884,141.759 349.051,143.759 347,145.5C 344.062,144.717 341.896,143.05 340.5,140.5C 339.45,140.095 339.45,139.429 340.5,138.5C 343.361,135.855 346.694,135.022 350.5,136C 351.085,137.302 351.751,138.469 352.5,139.5 Z"/></g>
<g><path style="opacity:0.549" fill="#d4bbf2" d="M 390.5,136.5 C 387.983,138.053 385.15,139.053 382,139.5C 380.831,140.009 379.998,140.842 379.5,142C 379.728,142.399 380.062,142.565 380.5,142.5C 378.576,146.109 376.576,146.275 374.5,143C 375.899,140.794 377.566,138.794 379.5,137C 383.208,137.409 386.875,137.242 390.5,136.5 Z"/></g>
<g><path style="opacity:0.929" fill="#bcc3f4" d="M 295.5,136.5 C 295.489,138.017 294.823,139.184 293.5,140C 290.949,140.002 288.949,140.836 287.5,142.5C 284.045,143.229 280.378,143.229 276.5,142.5C 275.873,141.583 275.539,140.583 275.5,139.5C 276.506,139.062 276.506,138.396 275.5,137.5C 277.786,137.405 279.786,136.738 281.5,135.5C 284.229,136.336 287.396,137.336 291,138.5C 292.3,137.293 293.8,136.626 295.5,136.5 Z"/></g>
<g><path style="opacity:1" fill="#c9adea" d="M 352.5,139.5 C 351.751,138.469 351.085,137.302 350.5,136C 346.694,135.022 343.361,135.855 340.5,138.5C 339.45,139.429 339.45,140.095 340.5,140.5C 339.493,146.189 337.493,146.689 334.5,142C 335.126,141.25 335.626,140.416 336,139.5C 339.376,137.281 342.876,135.281 346.5,133.5C 350.825,133.35 352.825,135.35 352.5,139.5 Z"/></g>
<g><path style="opacity:1" fill="#cf99fc" d="M 401.5,141.5 C 401.5,141.833 401.5,142.167 401.5,142.5C 395.661,141.248 392.661,143.581 392.5,149.5C 386.357,150.693 383.69,148.026 384.5,141.5C 389.184,140.295 393.851,138.962 398.5,137.5C 400.915,137.719 401.915,139.052 401.5,141.5 Z"/></g>
<g><path style="opacity:1" fill="#cbaaf4" d="M 134.5,138.5 C 135.937,139.725 137.604,140.725 139.5,141.5C 140.953,143.185 142.286,144.851 143.5,146.5C 141.022,144.561 138.355,142.894 135.5,141.5C 134.833,141.833 134.167,142.167 133.5,142.5C 135.358,144.524 137.025,146.691 138.5,149C 138.272,149.399 137.938,149.565 137.5,149.5C 133.5,146.834 131.667,143.167 132,138.5C 132.977,137.226 133.811,137.226 134.5,138.5 Z"/></g>
<g><path style="opacity:0.447" fill="#d0b6ee" d="M 399.5,134.5 C 407.5,138.167 407.5,141.833 399.5,145.5C 399.782,144.222 400.449,143.222 401.5,142.5C 401.5,142.167 401.5,141.833 401.5,141.5C 402.598,140.399 402.765,139.066 402,137.5C 400.955,136.627 400.122,135.627 399.5,134.5 Z"/></g>
<g><path style="opacity:1" fill="#b0b5fa" d="M 274.5,139.5 C 274.833,139.5 275.167,139.5 275.5,139.5C 275.539,140.583 275.873,141.583 276.5,142.5C 280.378,143.229 284.045,143.229 287.5,142.5C 288.167,142.833 288.833,143.167 289.5,143.5C 289.354,145.942 290.187,146.609 292,145.5C 293.009,147.025 293.509,148.692 293.5,150.5C 292.127,150.343 290.793,150.51 289.5,151C 288.402,151.77 288.402,152.603 289.5,153.5C 288.833,153.5 288.167,153.5 287.5,153.5C 287.167,153.5 286.833,153.5 286.5,153.5C 285.659,151.621 285.325,149.621 285.5,147.5C 282.447,147.089 279.447,146.423 276.5,145.5C 275.05,144.15 274.383,142.484 274.5,140.5C 274.5,140.167 274.5,139.833 274.5,139.5 Z"/></g>
<g><path style="opacity:1" fill="#bdcbf2" d="M 305.5,137.5 C 305.294,139.549 304.461,139.883 303,138.5C 301.131,141.406 301.631,143.74 304.5,145.5C 301.5,148.498 297.833,150.165 293.5,150.5C 293.509,148.692 293.009,147.025 292,145.5C 290.187,146.609 289.354,145.942 289.5,143.5C 290.15,143.804 290.817,144.137 291.5,144.5C 294.167,143.167 296.833,141.833 299.5,140.5C 300.429,139.311 300.762,137.978 300.5,136.5C 302.292,136.366 303.958,136.699 305.5,137.5 Z"/></g>
<g><path style="opacity:1" fill="#b6c4f9" d="M 229.5,128.5 C 230.117,128.611 230.617,128.944 231,129.5C 231.831,136.146 232.331,142.813 232.5,149.5C 229.674,149.002 227.34,147.669 225.5,145.5C 227.144,145.286 228.644,145.62 230,146.5C 229.952,144.074 230.119,141.741 230.5,139.5C 229.395,137.389 227.729,136.055 225.5,135.5C 225.045,132.069 226.379,129.736 229.5,128.5 Z"/></g>
<g><path style="opacity:0.99" fill="#c09afc" d="M 143.5,146.5 C 143.421,147.93 143.754,149.264 144.5,150.5C 143.675,151.386 142.675,151.719 141.5,151.5C 139.847,151.34 138.514,150.674 137.5,149.5C 137.938,149.565 138.272,149.399 138.5,149C 137.025,146.691 135.358,144.524 133.5,142.5C 134.167,142.167 134.833,141.833 135.5,141.5C 138.355,142.894 141.022,144.561 143.5,146.5 Z"/></g>
<g><path style="opacity:0.918" fill="#cfa2f9" d="M 324.5,152.5 C 324.5,152.833 324.5,153.167 324.5,153.5C 322.583,152.884 321.416,151.55 321,149.5C 320.13,150.108 319.63,150.941 319.5,152C 320.289,153.626 321.289,155.126 322.5,156.5C 322.135,157.902 321.301,158.902 320,159.5C 318.14,157.799 315.973,156.799 313.5,156.5C 313.739,154.533 313.406,152.699 312.5,151C 313.5,150.667 314.5,150.333 315.5,150C 315.167,149.667 314.833,149.333 314.5,149C 317.5,148.667 319.167,147 319.5,144C 321.112,143.28 322.612,143.446 324,144.5C 324.497,147.146 324.664,149.813 324.5,152.5 Z"/></g>
<g><path style="opacity:0.876" fill="#d6b8f5" d="M 367.5,145.5 C 372.747,145.64 373.747,147.806 370.5,152C 365.148,152.175 364.148,150.009 367.5,145.5 Z"/></g>
<g><path style="opacity:1" fill="#bfd7f4" d="M 57.5,158.5 C 51.4157,156.667 49.249,152.667 51,146.5C 55.3584,144.159 59.8584,143.992 64.5,146C 67.3483,148.172 69.6817,150.838 71.5,154C 75.7366,156.447 79.07,159.781 81.5,164C 80.6008,165.236 79.4341,166.07 78,166.5C 71.2532,163.312 64.4199,160.646 57.5,158.5 Z"/></g>
<g><path style="opacity:1" fill="#a6b0f7" d="M 143.5,146.5 C 148.158,147.16 150.158,149.826 149.5,154.5C 147.435,154.517 145.435,154.85 143.5,155.5C 143.267,153.938 142.6,152.605 141.5,151.5C 142.675,151.719 143.675,151.386 144.5,150.5C 143.754,149.264 143.421,147.93 143.5,146.5 Z"/></g>
<g><path style="opacity:1" fill="#a8bcfb" d="M 205.5,142.5 C 206.609,142.557 207.609,142.89 208.5,143.5C 208.664,146.187 208.497,148.854 208,151.5C 204.366,151.726 202.199,149.726 201.5,145.5C 201.719,143.085 203.052,142.085 205.5,142.5 Z"/></g>
<g><path style="opacity:0.612" fill="#d5acf7" d="M 399.5,134.5 C 400.122,135.627 400.955,136.627 402,137.5C 402.765,139.066 402.598,140.399 401.5,141.5C 401.915,139.052 400.915,137.719 398.5,137.5C 393.851,138.962 389.184,140.295 384.5,141.5C 383.69,148.026 386.357,150.693 392.5,149.5C 392.661,143.581 395.661,141.248 401.5,142.5C 400.449,143.222 399.782,144.222 399.5,145.5C 397.185,149.801 393.685,153.134 389,155.5C 384.601,151.996 381.768,147.663 380.5,142.5C 380.062,142.565 379.728,142.399 379.5,142C 379.998,140.842 380.831,140.009 382,139.5C 385.15,139.053 387.983,138.053 390.5,136.5C 392.963,135.767 395.297,134.767 397.5,133.5C 398.416,133.543 399.083,133.876 399.5,134.5 Z"/></g>
<g><path style="opacity:1" fill="#9da3f9" d="M 225.5,145.5 C 227.34,147.669 229.674,149.002 232.5,149.5C 233.461,147.735 233.795,145.735 233.5,143.5C 234.167,143.5 234.5,143.833 234.5,144.5C 234.678,145.695 235.011,146.862 235.5,148C 232.987,151.395 231.987,155.228 232.5,159.5C 224.609,160.958 222.609,158.291 226.5,151.5C 226.167,149.833 225.167,148.833 223.5,148.5C 222.657,150.231 222.657,152.065 223.5,154C 223.285,155.908 222.285,157.074 220.5,157.5C 219.954,153.117 219.454,148.783 219,144.5C 219.725,143.941 220.558,143.608 221.5,143.5C 222.867,144.225 224.2,144.892 225.5,145.5 Z"/></g>
<g><path style="opacity:0.914" fill="#c7acf0" d="M 125.5,153.5 C 125.611,155.648 124.944,155.981 123.5,154.5C 122.386,155.723 122.219,157.056 123,158.5C 125.738,160.289 128.572,161.622 131.5,162.5C 130.833,162.5 130.5,162.833 130.5,163.5C 126.867,162.681 123.7,161.014 121,158.5C 119.418,153.607 120.918,151.94 125.5,153.5 Z"/></g>
<g><path style="opacity:1" fill="#d2a5f9" d="M 349.5,159.5 C 349.167,159.5 348.833,159.5 348.5,159.5C 347.603,158.402 346.77,158.402 346,159.5C 345.536,158.906 345.369,158.239 345.5,157.5C 346.167,157.5 346.5,157.167 346.5,156.5C 348.048,156.179 348.715,155.179 348.5,153.5C 350.948,153.01 352.615,153.843 353.5,156C 352.653,157.771 351.32,158.937 349.5,159.5 Z"/></g>
<g><path style="opacity:0.647" fill="#dac1ed" d="M 430.5,159.5 C 432.288,159.785 433.955,159.452 435.5,158.5C 432.876,155.952 430.209,155.952 427.5,158.5C 426.209,157.458 426.209,156.292 427.5,155C 431.242,153.015 434.909,153.182 438.5,155.5C 439.614,156.723 439.781,158.056 439,159.5C 436.063,160.817 433.23,160.817 430.5,159.5 Z"/></g>
<g><path style="opacity:1" fill="#b6d4fd" d="M 57.5,158.5 C 57.9175,157.778 58.5842,157.278 59.5,157C 55.1994,155.215 53.1994,152.048 53.5,147.5C 56.9805,147.82 60.3138,147.987 63.5,148C 64.2487,149.919 65.4154,152.086 67,154.5C 70.8612,155.671 74.3612,157.504 77.5,160C 78.3366,161.011 78.67,162.178 78.5,163.5C 71.6201,161.363 64.6201,159.697 57.5,158.5 Z"/></g>
<g><path style="opacity:0.612" fill="#dbc4f6" d="M 332.5,162.5 C 331.645,161.469 330.978,160.303 330.5,159C 331.342,155.594 333.008,152.761 335.5,150.5C 336.696,151.559 337.363,152.893 337.5,154.5C 337,156.5 336.5,158.5 336,160.5C 335.184,161.823 334.017,162.489 332.5,162.5 Z"/></g>
<g><path style="opacity:0.663" fill="#d5b4f2" d="M 349.5,159.5 C 351.32,158.937 352.653,157.771 353.5,156C 352.615,153.843 350.948,153.01 348.5,153.5C 348.715,155.179 348.048,156.179 346.5,156.5C 347.48,152.173 350.147,150.673 354.5,152C 357.671,157.362 356.004,159.862 349.5,159.5 Z"/></g>
<g><path style="opacity:0.961" fill="#cfaaf0" d="M 430.5,159.5 C 429.391,159.443 428.391,159.11 427.5,158.5C 430.209,155.952 432.876,155.952 435.5,158.5C 433.955,159.452 432.288,159.785 430.5,159.5 Z"/></g>
<g><path style="opacity:1" fill="#adc4fd" d="M 225.5,145.5 C 224.2,144.892 222.867,144.225 221.5,143.5C 220.558,143.608 219.725,143.941 219,144.5C 219.454,148.783 219.954,153.117 220.5,157.5C 217.385,158.812 214.385,160.478 211.5,162.5C 208.455,162.508 205.455,162.841 202.5,163.5C 202.5,162.5 202.5,161.5 202.5,160.5C 206.516,162.281 209.849,161.447 212.5,158C 215.007,157.907 217.174,157.074 219,155.5C 218.709,152.705 218.209,149.871 217.5,147C 217.559,145.564 217.892,144.231 218.5,143C 220.433,142.749 222.266,142.249 224,141.5C 224.921,142.708 225.421,144.042 225.5,145.5 Z"/></g>
<g><path style="opacity:0.78" fill="#cadbf8" d="M 109.5,158.5 C 114.324,159.125 115.991,161.625 114.5,166C 110.262,166.419 107.762,164.585 107,160.5C 107.995,159.934 108.828,159.267 109.5,158.5 Z"/></g>
<g><path style="opacity:1" fill="#b099f9" d="M 125.5,153.5 C 126.167,153.833 126.833,154.167 127.5,154.5C 129.928,156.101 131.928,158.268 133.5,161C 133.164,162.03 132.497,162.53 131.5,162.5C 128.572,161.622 125.738,160.289 123,158.5C 122.219,157.056 122.386,155.723 123.5,154.5C 124.944,155.981 125.611,155.648 125.5,153.5 Z"/></g>
<g><path style="opacity:1" fill="#ca94fc" d="M 348.5,183.5 C 348.5,183.833 348.5,184.167 348.5,184.5C 347.778,184.082 347.278,183.416 347,182.5C 344.451,185.765 342.284,189.265 340.5,193C 342.391,196.055 344.057,199.222 345.5,202.5C 348.195,204.178 350.861,205.844 353.5,207.5C 350.945,211.125 348.945,215.125 347.5,219.5C 344.232,220.865 342.899,223.365 343.5,227C 344.721,230.398 344.721,233.565 343.5,236.5C 344.5,238.167 345.833,239.5 347.5,240.5C 345.44,242.701 343.274,244.035 341,244.5C 341.423,246.387 341.256,248.387 340.5,250.5C 335.464,249.388 331.798,251.055 329.5,255.5C 326.255,255.026 322.921,255.026 319.5,255.5C 319.5,256.5 319.5,257.5 319.5,258.5C 318.833,258.167 318.167,257.833 317.5,257.5C 316.68,255.188 315.847,252.854 315,250.5C 314.667,250.833 314.333,251.167 314,251.5C 313.623,250.058 312.79,249.058 311.5,248.5C 316.396,247.831 321.396,246.998 326.5,246C 329.768,245.064 332.101,243.064 333.5,240C 335.246,239.529 336.913,238.862 338.5,238C 341.112,230.389 341.945,222.555 341,214.5C 337.838,212.021 335.505,209.021 334,205.5C 333.692,206.308 333.192,206.975 332.5,207.5C 331.205,206.902 329.872,206.402 328.5,206C 329.39,201.68 328.057,198.013 324.5,195C 319.934,193.691 315.267,193.191 310.5,193.5C 310.762,192.022 310.429,190.689 309.5,189.5C 304.96,189.273 301.294,187.44 298.5,184C 299.966,183.365 301.3,182.531 302.5,181.5C 303.875,185.094 306.542,186.428 310.5,185.5C 310.452,182.365 308.785,180.698 305.5,180.5C 313.118,176.938 315.451,171.272 312.5,163.5C 312.238,162.022 312.571,160.689 313.5,159.5C 314.192,160.025 314.692,160.692 315,161.5C 318.428,160.604 321.928,159.938 325.5,159.5C 325.185,161.226 325.019,162.893 325,164.5C 327.069,165.264 329.236,165.764 331.5,166C 332.308,168.088 333.308,170.088 334.5,172C 338.442,172.993 342.442,173.66 346.5,174C 348.34,176.826 349.006,179.993 348.5,183.5 Z"/></g>
<g><path style="opacity:0.714" fill="#d0bbf4" d="M 345.5,157.5 C 345.369,158.239 345.536,158.906 346,159.5C 346.77,158.402 347.603,158.402 348.5,159.5C 347.852,161.086 347.352,162.753 347,164.5C 343.974,166.916 341.807,166.083 340.5,162C 341.377,159.622 343.044,158.122 345.5,157.5 Z"/></g>
<g><path style="opacity:1" fill="#a9b4f9" d="M 127.5,154.5 C 129.735,154.205 131.735,154.539 133.5,155.5C 133.389,156.117 133.056,156.617 132.5,157C 134.448,158.439 135.781,160.272 136.5,162.5C 135.806,165.51 134.139,166.177 131.5,164.5C 130.833,164.5 130.5,164.167 130.5,163.5C 130.5,162.833 130.833,162.5 131.5,162.5C 132.497,162.53 133.164,162.03 133.5,161C 131.928,158.268 129.928,156.101 127.5,154.5 Z"/></g>
<g><path style="opacity:1" fill="#a5b4fb" d="M 202.5,160.5 C 202.5,161.5 202.5,162.5 202.5,163.5C 205.455,162.841 208.455,162.508 211.5,162.5C 208.411,163.785 205.078,164.451 201.5,164.5C 202.815,169.836 200.815,172.503 195.5,172.5C 192.695,171.681 189.695,171.181 186.5,171C 185.29,169.961 184.29,168.794 183.5,167.5C 185.196,167.685 186.529,168.519 187.5,170C 191.167,170.667 194.833,170.667 198.5,170C 199.76,168.186 199.76,166.353 198.5,164.5C 197.261,164.058 196.261,163.391 195.5,162.5C 192.236,161.073 189.736,158.739 188,155.5C 186.409,148.923 188.909,146.756 195.5,149C 199.289,151.954 201.622,155.787 202.5,160.5 Z"/></g>
<g><path style="opacity:1" fill="#9698fa" d="M 195.5,162.5 C 193.499,159.491 191.499,156.491 189.5,153.5C 189.833,152.833 190.167,152.167 190.5,151.5C 196.119,153.111 199.119,156.778 199.5,162.5C 198.167,162.5 196.833,162.5 195.5,162.5 Z"/></g>
<g><path style="opacity:1" fill="#ae94fb" d="M 286.5,153.5 C 286.833,153.5 287.167,153.5 287.5,153.5C 291.646,156.259 296.146,156.926 301,155.5C 302.753,156.627 304.587,157.627 306.5,158.5C 307.057,160.718 307.057,163.051 306.5,165.5C 308.718,165.386 310.718,164.72 312.5,163.5C 312.082,167.598 311.249,171.598 310,175.5C 308.211,177.229 306.044,177.896 303.5,177.5C 303.5,174.167 303.5,170.833 303.5,167.5C 301.5,167.5 299.5,167.5 297.5,167.5C 294.508,172.658 292.175,178.158 290.5,184C 290.948,187.277 291.281,190.777 291.5,194.5C 289.707,194.116 288.707,192.95 288.5,191C 288.953,182.271 291.286,174.104 295.5,166.5C 291.045,166.105 287.212,164.438 284,161.5C 281.912,159.176 282.079,157.176 284.5,155.5C 286.214,156.609 286.881,155.942 286.5,153.5 Z"/></g>
<g><path style="opacity:0.439" fill="#d5b1f3" d="M 380.5,187.5 C 374.347,186.508 371.18,182.841 371,176.5C 367.925,175.531 366.925,173.531 368,170.5C 370.956,168.511 373.789,166.344 376.5,164C 390.922,162.088 396.756,168.255 394,182.5C 392.474,185.578 389.974,187.412 386.5,188C 384.288,188.789 382.288,188.622 380.5,187.5 Z"/></g>
<g><path style="opacity:1" fill="#ce97fc" d="M 380.5,187.5 C 378.239,186.41 376.406,184.744 375,182.5C 373.861,178.027 372.194,174.027 370,170.5C 376.815,165.838 383.982,165.338 391.5,169C 394.653,179.328 390.986,185.494 380.5,187.5 Z"/></g>
<g><path style="opacity:1" fill="#9ba6f8" d="M 183.5,167.5 C 184.29,168.794 185.29,169.961 186.5,171C 189.695,171.181 192.695,171.681 195.5,172.5C 192.428,172.183 189.428,172.516 186.5,173.5C 187.648,175.149 188.981,176.649 190.5,178C 194.406,178.596 197.573,180.43 200,183.5C 199.975,188.824 201.142,193.824 203.5,198.5C 202.167,197.167 200.833,195.833 199.5,194.5C 199.665,191.15 199.498,187.817 199,184.5C 198.617,183.944 198.117,183.611 197.5,183.5C 192.761,181.28 188.428,178.28 184.5,174.5C 181.66,173.577 179.326,171.91 177.5,169.5C 176.548,167.955 176.215,166.288 176.5,164.5C 179.631,163.908 181.964,164.908 183.5,167.5 Z"/></g>
<g><path style="opacity:0.784" fill="#b7d2f0" d="M 30.5,168.5 C 32.9477,168.085 34.2811,169.085 34.5,171.5C 32.9634,176.604 30.9634,176.771 28.5,172C 28.9783,170.697 29.645,169.531 30.5,168.5 Z"/></g>
<g><path style="opacity:1" fill="#d0abf8" d="M 329.5,143.5 C 328.59,146.992 326.924,149.992 324.5,152.5C 324.664,149.813 324.497,147.146 324,144.5C 322.612,143.446 321.112,143.28 319.5,144C 319.167,147 317.5,148.667 314.5,149C 314.833,149.333 315.167,149.667 315.5,150C 314.5,150.333 313.5,150.667 312.5,151C 313.406,152.699 313.739,154.533 313.5,156.5C 315.973,156.799 318.14,157.799 320,159.5C 321.301,158.902 322.135,157.902 322.5,156.5C 321.289,155.126 320.289,153.626 319.5,152C 319.63,150.941 320.13,150.108 321,149.5C 321.416,151.55 322.583,152.884 324.5,153.5C 328.467,154.643 330.301,157.31 330,161.5C 330.671,162.252 331.504,162.586 332.5,162.5C 332.267,167.768 334.767,170.768 340,171.5C 344.124,170.428 348.29,170.262 352.5,171C 353.357,171.689 354.023,172.522 354.5,173.5C 352.585,175.071 351.585,177.071 351.5,179.5C 350.691,181.292 350.191,183.292 350,185.5C 349.722,184.584 349.222,183.918 348.5,183.5C 349.006,179.993 348.34,176.826 346.5,174C 342.442,173.66 338.442,172.993 334.5,172C 333.308,170.088 332.308,168.088 331.5,166C 329.236,165.764 327.069,165.264 325,164.5C 325.019,162.893 325.185,161.226 325.5,159.5C 321.928,159.938 318.428,160.604 315,161.5C 314.692,160.692 314.192,160.025 313.5,159.5C 312.571,160.689 312.238,162.022 312.5,163.5C 310.718,164.72 308.718,165.386 306.5,165.5C 307.057,163.051 307.057,160.718 306.5,158.5C 304.587,157.627 302.753,156.627 301,155.5C 296.146,156.926 291.646,156.259 287.5,153.5C 288.167,153.5 288.833,153.5 289.5,153.5C 297.988,155.058 305.321,152.891 311.5,147C 312.784,146.316 313.951,146.483 315,147.5C 317.324,146.225 317.824,144.558 316.5,142.5C 319.716,141.97 322.883,141.304 326,140.5C 326.333,141.5 326.667,142.5 327,143.5C 327.687,139.674 328.52,139.674 329.5,143.5 Z M 309.5,153.5 C 310.776,154.386 310.776,155.386 309.5,156.5C 308.438,155.575 308.438,154.575 309.5,153.5 Z"/></g>
<g><path style="opacity:0.278" fill="#c0d6e9" d="M 77.5,177.5 C 80.8606,178.203 81.1939,179.537 78.5,181.5C 76.2997,180.675 75.9663,179.342 77.5,177.5 Z"/></g>
<g><path style="opacity:1" fill="#aac0fb" d="M 184.5,174.5 C 188.428,178.28 192.761,181.28 197.5,183.5C 196.417,183.461 195.417,183.127 194.5,182.5C 193.516,185.428 193.183,188.428 193.5,191.5C 191.5,191.5 189.5,191.5 187.5,191.5C 187.122,189.354 186.788,187.187 186.5,185C 186.354,182.966 187.02,181.299 188.5,180C 186.254,178.743 184.921,176.91 184.5,174.5 Z"/></g>
<g><path style="opacity:0.498" fill="#bad2f3" d="M 22.5,179.5 C 25.8499,179.335 29.1832,179.502 32.5,180C 35.8333,181.667 39.1667,183.333 42.5,185C 44.229,186.789 44.8957,188.956 44.5,191.5C 37.5433,191.769 30.8766,190.603 24.5,188C 22.6487,186.316 20.982,184.483 19.5,182.5C 20.3398,181.265 21.3398,180.265 22.5,179.5 Z"/></g>
<g><path style="opacity:1" fill="#999efc" d="M 188.5,183.5 C 189.5,183.5 190.5,183.5 191.5,183.5C 191.5,185.167 191.5,186.833 191.5,188.5C 187.716,188.475 186.716,186.808 188.5,183.5 Z"/></g>
<g><path style="opacity:1" fill="#c2b9f7" d="M 351.5,179.5 C 351.415,180.995 352.081,181.995 353.5,182.5C 357.11,181.342 360.777,180.842 364.5,181C 366.795,182.062 367.461,183.562 366.5,185.5C 361.532,186.164 356.532,186.664 351.5,187C 350.624,188.586 349.624,190.086 348.5,191.5C 348.782,193.987 348.782,196.653 348.5,199.5C 350.565,199.517 352.565,199.85 354.5,200.5C 352.393,201.468 350.059,201.802 347.5,201.5C 347.599,198.327 346.932,195.327 345.5,192.5C 347.072,190.026 348.072,187.36 348.5,184.5C 348.5,184.167 348.5,183.833 348.5,183.5C 349.222,183.918 349.722,184.584 350,185.5C 350.191,183.292 350.691,181.292 351.5,179.5 Z"/></g>
<g><path style="opacity:0.184" fill="#c4d4e9" d="M 51.5,187.5 C 54.5187,187.972 55.5187,189.472 54.5,192C 51.6715,192.969 49.3382,192.303 47.5,190C 48.8584,189.066 50.1917,188.232 51.5,187.5 Z"/></g>
<g><path style="opacity:0.251" fill="#cbdaf7" d="M 366.5,185.5 C 374.919,189.72 376.253,195.387 370.5,202.5C 371.136,198.74 370.469,195.073 368.5,191.5C 368.608,190.558 368.941,189.725 369.5,189C 367.574,188.578 366.574,187.411 366.5,185.5 Z"/></g>
<g><path style="opacity:1" fill="#b7cffd" d="M 366.5,185.5 C 366.574,187.411 367.574,188.578 369.5,189C 368.941,189.725 368.608,190.558 368.5,191.5C 370.469,195.073 371.136,198.74 370.5,202.5C 370.5,202.833 370.5,203.167 370.5,203.5C 369.5,202.167 368.5,202.167 367.5,203.5C 365.217,203.392 363.217,202.559 361.5,201C 359.19,200.503 356.857,200.337 354.5,200.5C 352.565,199.85 350.565,199.517 348.5,199.5C 348.782,196.653 348.782,193.987 348.5,191.5C 349.624,190.086 350.624,188.586 351.5,187C 356.532,186.664 361.532,186.164 366.5,185.5 Z"/></g>
<g><path style="opacity:1" fill="#bdd7f9" d="M 131.5,167.5 C 132.267,168.172 132.934,169.005 133.5,170C 130.754,171.75 127.754,172.75 124.5,173C 123.89,174.947 123.057,176.781 122,178.5C 121.667,178.167 121.333,177.833 121,177.5C 117.531,179.574 114.198,181.907 111,184.5C 110.846,187.161 109.846,189.827 108,192.5C 106.795,193.071 105.628,193.738 104.5,194.5C 106.423,195.308 108.423,195.808 110.5,196C 111.833,196.667 111.833,197.333 110.5,198C 114.986,201.13 116.486,205.297 115,210.5C 118.067,213.228 120.733,216.228 123,219.5C 123.337,222.861 123.837,226.194 124.5,229.5C 122.967,234.018 120.633,238.018 117.5,241.5C 119.333,244.835 120.666,248.335 121.5,252C 117.909,253.708 114.243,255.208 110.5,256.5C 112.283,258.232 114.283,259.732 116.5,261C 115.833,262.667 115.167,264.333 114.5,266C 112.048,266.29 109.715,266.956 107.5,268C 107.833,268.333 108.167,268.667 108.5,269C 104.759,272.353 105.759,273.353 111.5,272C 114.398,267.469 118.232,263.969 123,261.5C 123.333,258.833 123.667,256.167 124,253.5C 124.833,252.667 125.667,251.833 126.5,251C 129.547,250.42 129.881,250.753 127.5,252C 132.924,251.483 136.257,253.816 137.5,259C 136.432,263.139 135.932,267.305 136,271.5C 137.756,272.548 139.59,272.548 141.5,271.5C 143.636,272.423 144.802,274.089 145,276.5C 146.049,275.483 147.216,275.316 148.5,276C 149.614,277.57 150.947,278.903 152.5,280C 151.284,281.594 149.951,283.094 148.5,284.5C 150.636,285.472 151.803,287.139 152,289.5C 152.671,288.748 153.504,288.414 154.5,288.5C 156.745,290.417 157.078,292.75 155.5,295.5C 153.15,297.687 151.15,300.187 149.5,303C 146.519,303.381 144.519,302.048 143.5,299C 145.755,296.256 147.088,293.089 147.5,289.5C 144.774,285.275 143.274,280.608 143,275.5C 140.183,275.077 137.35,274.744 134.5,274.5C 132.771,272.149 132.104,269.482 132.5,266.5C 129.234,266.567 127.734,264.901 128,261.5C 123.633,266.258 118.8,270.425 113.5,274C 109.245,274.796 105.079,274.629 101,273.5C 100.294,271.029 100.627,268.695 102,266.5C 104.882,265.642 107.382,264.142 109.5,262C 106.92,260.519 106.087,258.352 107,255.5C 110.682,252.968 114.515,250.801 118.5,249C 116.576,247.072 115.576,244.738 115.5,242C 116.932,237.736 118.599,233.569 120.5,229.5C 118.073,225.618 116.573,221.285 116,216.5C 114.333,214.167 112.667,211.833 111,209.5C 110.774,206.905 110.274,204.405 109.5,202C 102.287,202.227 95.6206,200.561 89.5,197C 86.5,196.667 83.5,196.333 80.5,196C 79.4086,193.936 79.2419,191.769 80,189.5C 80.804,188.196 81.9707,187.529 83.5,187.5C 86.701,189.513 90.201,190.846 94,191.5C 97.5114,190.887 101.011,190.22 104.5,189.5C 107.092,187.974 108.092,185.641 107.5,182.5C 99.7323,183.386 94.0657,180.386 90.5,173.5C 91.3483,170.825 93.1816,169.491 96,169.5C 103.257,170.091 108.257,173.758 111,180.5C 117.958,176.378 124.791,172.044 131.5,167.5 Z M 128.5,256.5 C 127.491,257.939 127.824,259.272 129.5,260.5C 133.449,258.374 133.116,257.041 128.5,256.5 Z"/></g>
<g><path style="opacity:1" fill="#be93fb" d="M 312.5,163.5 C 315.451,171.272 313.118,176.938 305.5,180.5C 308.785,180.698 310.452,182.365 310.5,185.5C 306.542,186.428 303.875,185.094 302.5,181.5C 301.3,182.531 299.966,183.365 298.5,184C 301.294,187.44 304.96,189.273 309.5,189.5C 310.429,190.689 310.762,192.022 310.5,193.5C 315.267,193.191 319.934,193.691 324.5,195C 328.057,198.013 329.39,201.68 328.5,206C 329.872,206.402 331.205,206.902 332.5,207.5C 333.192,206.975 333.692,206.308 334,205.5C 335.505,209.021 337.838,212.021 341,214.5C 341.945,222.555 341.112,230.389 338.5,238C 336.913,238.862 335.246,239.529 333.5,240C 332.101,243.064 329.768,245.064 326.5,246C 321.396,246.998 316.396,247.831 311.5,248.5C 310.209,248.737 309.209,248.404 308.5,247.5C 305.25,245.757 302.416,243.423 300,240.5C 298.334,241.34 298.167,240.84 299.5,239C 297.956,236.001 296.789,232.834 296,229.5C 292.292,227.258 288.792,224.925 285.5,222.5C 286.946,221.387 288.613,221.22 290.5,222C 295.612,225.049 298.612,229.549 299.5,235.5C 302.033,237.394 303.7,239.894 304.5,243C 310.944,244.669 317.277,244.836 323.5,243.5C 326.833,244.167 328.833,242.833 329.5,239.5C 338.016,235.516 341.182,228.85 339,219.5C 334.12,214.644 328.62,210.644 322.5,207.5C 321.422,205.525 321.755,203.692 323.5,202C 322.547,200.045 321.213,198.378 319.5,197C 315.23,195.905 310.896,195.072 306.5,194.5C 306.306,192.93 306.306,191.43 306.5,190C 303.18,188.884 299.847,188.217 296.5,188C 295.633,190.506 294.633,193.006 293.5,195.5C 292.833,195.167 292.167,194.833 291.5,194.5C 291.281,190.777 290.948,187.277 290.5,184C 292.175,178.158 294.508,172.658 297.5,167.5C 299.5,167.5 301.5,167.5 303.5,167.5C 303.5,170.833 303.5,174.167 303.5,177.5C 306.044,177.896 308.211,177.229 310,175.5C 311.249,171.598 312.082,167.598 312.5,163.5 Z"/></g>
<g><path style="opacity:0.951" fill="#bdd4f4" d="M 9.5,198.5 C 14.9127,198.229 20.2461,198.729 25.5,200C 28.6928,201.026 30.0262,203.192 29.5,206.5C 23.1115,206.688 16.7782,206.188 10.5,205C 8.31619,203.102 7.98286,200.936 9.5,198.5 Z"/></g>
<g><path style="opacity:0.947" fill="#bc9cf9" d="M 348.5,184.5 C 348.072,187.36 347.072,190.026 345.5,192.5C 346.932,195.327 347.599,198.327 347.5,201.5C 347.611,202.117 347.944,202.617 348.5,203C 351.817,203.498 355.15,203.665 358.5,203.5C 358.5,204.5 358.5,205.5 358.5,206.5C 361.482,206.037 364.482,205.704 367.5,205.5C 367.167,208.833 366.833,212.167 366.5,215.5C 366.068,216.71 365.401,217.71 364.5,218.5C 363.811,217.226 362.977,217.226 362,218.5C 361.5,217.333 360.667,216.5 359.5,216C 360.801,214.384 360.801,212.884 359.5,211.5C 359.869,209.007 359.203,208.34 357.5,209.5C 356.713,207.896 355.38,207.229 353.5,207.5C 350.861,205.844 348.195,204.178 345.5,202.5C 344.057,199.222 342.391,196.055 340.5,193C 342.284,189.265 344.451,185.765 347,182.5C 347.278,183.416 347.778,184.082 348.5,184.5 Z"/></g>
<g><path style="opacity:1" fill="#a9a5fa" d="M 354.5,200.5 C 356.857,200.337 359.19,200.503 361.5,201C 363.217,202.559 365.217,203.392 367.5,203.5C 367.5,204.167 367.5,204.833 367.5,205.5C 364.482,205.704 361.482,206.037 358.5,206.5C 358.5,205.5 358.5,204.5 358.5,203.5C 355.15,203.665 351.817,203.498 348.5,203C 347.944,202.617 347.611,202.117 347.5,201.5C 350.059,201.802 352.393,201.468 354.5,200.5 Z"/></g>
<g><path style="opacity:0.659" fill="#c4b4ed" d="M 370.5,203.5 C 370.268,207.942 368.935,211.942 366.5,215.5C 366.833,212.167 367.167,208.833 367.5,205.5C 367.5,204.833 367.5,204.167 367.5,203.5C 368.5,202.167 369.5,202.167 370.5,203.5 Z"/></g>
<g><path style="opacity:0.894" fill="#bed6f6" d="M 96.5,202.5 C 103.468,202.93 104.801,205.763 100.5,211C 94.4987,210.495 93.1654,207.662 96.5,202.5 Z"/></g>
<g><path style="opacity:1" fill="#a694fc" d="M 323.5,243.5 C 318.041,243.897 312.708,243.397 307.5,242C 305.249,238.075 302.583,234.408 299.5,231C 299.957,230.586 300.291,230.086 300.5,229.5C 298.585,227.929 297.585,225.929 297.5,223.5C 302.531,223.634 306.198,221.468 308.5,217C 306.641,214.159 303.974,212.492 300.5,212C 298.963,210.89 298.297,209.39 298.5,207.5C 297.5,207.5 296.5,207.5 295.5,207.5C 297.054,211.358 296.721,215.025 294.5,218.5C 290.489,219.227 286.489,219.893 282.5,220.5C 280.973,222.193 279.64,224.027 278.5,226C 279.784,227.297 279.617,228.464 278,229.5C 275.631,229.677 273.131,229.344 270.5,228.5C 267.771,231.244 264.771,231.91 261.5,230.5C 265.102,230.533 268.102,229.199 270.5,226.5C 271.768,227.428 273.101,227.595 274.5,227C 276.49,224.012 278.823,221.345 281.5,219C 285.403,218.417 289.07,217.917 292.5,217.5C 293.553,216.562 294.22,215.395 294.5,214C 291.586,209.65 292.586,206.484 297.5,204.5C 301.111,208.6 305.278,212.267 310,215.5C 310.667,216.833 310.667,218.167 310,219.5C 307.5,221.333 305,223.167 302.5,225C 304.71,228.949 306.543,233.116 308,237.5C 308.903,238.701 310.069,239.535 311.5,240C 314.833,240.667 318.167,240.667 321.5,240C 325.052,237.297 328.552,234.464 332,231.5C 333.426,226.243 332.259,221.743 328.5,218C 324.05,215.739 319.383,214.072 314.5,213C 312.393,211.736 311.393,209.903 311.5,207.5C 313.867,206.836 315.867,205.503 317.5,203.5C 318.681,201.865 318.681,200.198 317.5,198.5C 310.668,196.695 304.001,196.695 297.5,198.5C 295.018,198.89 293.685,197.89 293.5,195.5C 294.633,193.006 295.633,190.506 296.5,188C 299.847,188.217 303.18,188.884 306.5,190C 306.306,191.43 306.306,192.93 306.5,194.5C 310.896,195.072 315.23,195.905 319.5,197C 321.213,198.378 322.547,200.045 323.5,202C 321.755,203.692 321.422,205.525 322.5,207.5C 328.62,210.644 334.12,214.644 339,219.5C 341.182,228.85 338.016,235.516 329.5,239.5C 328.833,242.833 326.833,244.167 323.5,243.5 Z"/></g>
<g><path style="opacity:0.573" fill="#cbbce4" d="M 396.5,210.5 C 401.197,211.874 401.531,213.874 397.5,216.5C 395.261,214.867 394.928,212.867 396.5,210.5 Z"/></g>
<g><path style="opacity:1" fill="#a2b8f6" d="M 187.5,208.5 C 188.833,208.5 190.167,208.5 191.5,208.5C 191.5,210.833 191.5,213.167 191.5,215.5C 190.167,215.5 188.833,215.5 187.5,215.5C 187.5,213.167 187.5,210.833 187.5,208.5 Z"/></g>
<g><path style="opacity:0.42" fill="#d0aaf8" d="M 353.5,207.5 C 355.38,207.229 356.713,207.896 357.5,209.5C 356.659,211.512 355.159,212.845 353,213.5C 352.506,215.134 352.34,216.801 352.5,218.5C 357.436,219.241 357.77,221.074 353.5,224C 355.871,227.039 358.538,229.873 361.5,232.5C 360.395,233.892 359.061,235.059 357.5,236C 359.491,236.374 361.158,237.207 362.5,238.5C 358.931,240.049 356.598,238.883 355.5,235C 356.167,234.667 356.833,234.333 357.5,234C 356.062,233.781 354.729,233.281 353.5,232.5C 354.274,231.289 355.107,231.289 356,232.5C 356.667,231.833 356.667,231.167 356,230.5C 353.416,230.184 350.75,229.184 348,227.5C 347.938,224.712 347.771,222.045 347.5,219.5C 348.945,215.125 350.945,211.125 353.5,207.5 Z"/></g>
<g><path style="opacity:0.333" fill="#cbafed" d="M 359.5,211.5 C 360.801,212.884 360.801,214.384 359.5,216C 360.667,216.5 361.5,217.333 362,218.5C 362.977,217.226 363.811,217.226 364.5,218.5C 363.264,220.043 361.598,221.043 359.5,221.5C 358.914,221.291 358.414,220.957 358,220.5C 357.403,217.319 357.903,214.319 359.5,211.5 Z"/></g>
<g><path style="opacity:1" fill="#9ca5f9" d="M 203.5,198.5 C 204.994,203.677 206.327,209.011 207.5,214.5C 204.601,218.735 202.601,223.402 201.5,228.5C 201.5,230.833 201.5,233.167 201.5,235.5C 198.5,235.5 195.5,235.5 192.5,235.5C 192.162,238.157 192.829,240.49 194.5,242.5C 191.988,243.795 189.321,244.461 186.5,244.5C 186.468,247.076 187.135,249.409 188.5,251.5C 184.653,250.476 183.653,248.143 185.5,244.5C 187.108,243.682 188.775,243.015 190.5,242.5C 191.484,239.572 191.817,236.572 191.5,233.5C 194.5,233.5 197.5,233.5 200.5,233.5C 200.335,229.818 200.501,226.152 201,222.5C 203.046,219.865 204.213,216.865 204.5,213.5C 203.669,208.534 203.336,203.534 203.5,198.5 Z"/></g>
<g><path style="opacity:0.322" fill="#d1baf3" d="M 358.5,222.5 C 361.372,222.635 362.872,223.969 363,226.5C 360.507,227.946 358.673,227.279 357.5,224.5C 357.863,223.817 358.196,223.15 358.5,222.5 Z"/></g>
<g><path style="opacity:0.059" fill="#c0bedc" d="M 400.5,225.5 C 402.983,225.73 403.483,226.397 402,227.5C 400.97,227.164 400.47,226.497 400.5,225.5 Z"/></g>
<g><path style="opacity:0.855" fill="#d6c1ef" d="M 382.5,229.5 C 385.999,230.134 386.999,231.967 385.5,235C 381.537,235.118 380.537,233.284 382.5,229.5 Z"/></g>
<g><path style="opacity:0.922" fill="#c3d8f3" d="M 101.5,230.5 C 106.229,231.926 106.562,233.926 102.5,236.5C 98.9859,235.101 98.6526,233.101 101.5,230.5 Z"/></g>
<g><path style="opacity:1" fill="#ce9afb" d="M 347.5,219.5 C 347.771,222.045 347.938,224.712 348,227.5C 350.75,229.184 353.416,230.184 356,230.5C 356.667,231.167 356.667,231.833 356,232.5C 355.107,231.289 354.274,231.289 353.5,232.5C 354.729,233.281 356.062,233.781 357.5,234C 356.833,234.333 356.167,234.667 355.5,235C 356.598,238.883 358.931,240.049 362.5,238.5C 364.858,238.253 366.858,238.919 368.5,240.5C 368.172,243.982 368.172,247.315 368.5,250.5C 368.5,251.167 368.5,251.833 368.5,252.5C 367.883,252.389 367.383,252.056 367,251.5C 366.5,252.667 365.667,253.5 364.5,254C 366.469,256.489 368.802,258.322 371.5,259.5C 368.401,259.908 366.067,258.741 364.5,256C 362.421,255.192 360.421,255.359 358.5,256.5C 357.226,261.588 354.226,263.921 349.5,263.5C 348.448,263.649 347.448,263.483 346.5,263C 349.973,262.681 352.806,261.181 355,258.5C 355.854,255.528 355.021,254.528 352.5,255.5C 352.167,254.833 351.833,254.167 351.5,253.5C 351.53,252.503 351.03,251.836 350,251.5C 347.366,251.923 345.366,253.256 344,255.5C 344.077,254.262 343.911,253.262 343.5,252.5C 342.935,254.544 341.935,256.21 340.5,257.5C 340.179,255.952 339.179,255.285 337.5,255.5C 335.712,254.378 333.712,254.211 331.5,255C 331.833,255.333 332.167,255.667 332.5,256C 331.061,256.991 330.061,258.324 329.5,260C 328.207,260.49 326.873,260.657 325.5,260.5C 325.649,259.448 325.483,258.448 325,257.5C 323.301,258.406 321.467,258.739 319.5,258.5C 319.5,257.5 319.5,256.5 319.5,255.5C 322.921,255.026 326.255,255.026 329.5,255.5C 331.798,251.055 335.464,249.388 340.5,250.5C 341.256,248.387 341.423,246.387 341,244.5C 343.274,244.035 345.44,242.701 347.5,240.5C 345.833,239.5 344.5,238.167 343.5,236.5C 344.721,233.565 344.721,230.398 343.5,227C 342.899,223.365 344.232,220.865 347.5,219.5 Z M 351.5,253.5 C 351.833,254.167 352.167,254.833 352.5,255.5C 353.391,257.515 352.558,258.849 350,259.5C 345.297,256.532 345.797,254.532 351.5,253.5 Z"/></g>
<g><path style="opacity:0.608" fill="#d1a9f2" d="M 388.5,248.5 C 393.854,250.216 395.854,253.883 394.5,259.5C 398.674,260.555 402.84,261.555 407,262.5C 408.683,259.239 410.183,255.906 411.5,252.5C 407.348,248.567 403.348,244.4 399.5,240C 396.635,239.817 393.969,239.317 391.5,238.5C 393.851,236.797 396.518,236.297 399.5,237C 401.49,239.293 403.49,241.626 405.5,244C 412.23,245.946 415.063,250.446 414,257.5C 411.663,264.42 407.163,266.587 400.5,264C 397.751,262.877 395.251,261.377 393,259.5C 391.973,255.574 390.473,251.907 388.5,248.5 Z"/></g>
<g><path style="opacity:1" fill="#a593fc" d="M 261.5,230.5 C 257.789,230.386 254.455,229.386 251.5,227.5C 251.238,228.978 251.571,230.311 252.5,231.5C 255.833,234.167 259.167,236.833 262.5,239.5C 263.289,242.905 264.289,246.239 265.5,249.5C 264.349,251.325 263.682,253.325 263.5,255.5C 259.95,255.744 256.617,256.744 253.5,258.5C 252.062,258.281 250.729,257.781 249.5,257C 251.628,253.87 254.128,251.037 257,248.5C 257.483,247.552 257.649,246.552 257.5,245.5C 253.833,245.5 250.167,245.5 246.5,245.5C 241.305,243.466 236.639,244.3 232.5,248C 225.963,248.634 219.63,249.801 213.5,251.5C 213.737,252.791 213.404,253.791 212.5,254.5C 212.5,253.167 212.5,251.833 212.5,250.5C 217.94,248.527 223.606,247.027 229.5,246C 231.64,245.027 233.307,243.527 234.5,241.5C 235.833,241.167 237.167,240.833 238.5,240.5C 241.905,241.562 245.405,242.562 249,243.5C 250.667,242.5 252.333,241.5 254,240.5C 255.261,240.759 256.261,241.426 257,242.5C 260.055,240.648 259.555,239.648 255.5,239.5C 254.839,236.187 253.006,233.52 250,231.5C 247.866,229.422 248.032,227.588 250.5,226C 254.814,225.79 258.481,227.29 261.5,230.5 Z"/></g>
<g><path style="opacity:1" fill="#9799fa" d="M 201.5,228.5 C 202.117,228.611 202.617,228.944 203,229.5C 203.333,231.833 203.667,234.167 204,236.5C 206.069,237.264 208.236,237.764 210.5,238C 211.38,239.356 211.714,240.856 211.5,242.5C 210.833,242.167 210.167,241.833 209.5,241.5C 208.573,239.524 207.24,239.191 205.5,240.5C 204.902,241.795 204.402,243.128 204,244.5C 201.264,247.099 198.431,249.432 195.5,251.5C 193.167,251.5 190.833,251.5 188.5,251.5C 187.135,249.409 186.468,247.076 186.5,244.5C 189.321,244.461 191.988,243.795 194.5,242.5C 192.829,240.49 192.162,238.157 192.5,235.5C 195.5,235.5 198.5,235.5 201.5,235.5C 201.5,233.167 201.5,230.833 201.5,228.5 Z"/></g>
<g><path style="opacity:1" fill="#a8adf9" d="M 209.5,241.5 C 210.167,241.833 210.833,242.167 211.5,242.5C 212.124,246.648 212.124,250.982 211.5,255.5C 211.5,256.5 211.5,257.5 211.5,258.5C 213.858,258.253 215.858,258.919 217.5,260.5C 219.342,263.999 220.676,267.666 221.5,271.5C 220.5,271.5 219.5,271.5 218.5,271.5C 218.804,270.85 219.137,270.183 219.5,269.5C 216.766,268.099 214.766,266.099 213.5,263.5C 213.5,262.833 213.167,262.5 212.5,262.5C 210.554,261.965 209.554,260.632 209.5,258.5C 208.47,252.621 208.47,246.954 209.5,241.5 Z"/></g>
<g><path style="opacity:1" fill="#a3b1fd" d="M 209.5,241.5 C 208.5,241.5 207.5,241.5 206.5,241.5C 204.77,246.894 201.104,250.227 195.5,251.5C 198.431,249.432 201.264,247.099 204,244.5C 204.402,243.128 204.902,241.795 205.5,240.5C 207.24,239.191 208.573,239.524 209.5,241.5 Z"/></g>
<g><path style="opacity:1" fill="#cd95fc" d="M 391.5,238.5 C 393.969,239.317 396.635,239.817 399.5,240C 403.348,244.4 407.348,248.567 411.5,252.5C 410.183,255.906 408.683,259.239 407,262.5C 402.84,261.555 398.674,260.555 394.5,259.5C 395.854,253.883 393.854,250.216 388.5,248.5C 387.099,244.591 388.099,241.258 391.5,238.5 Z"/></g>
<g><path style="opacity:1" fill="#d5b2f6" d="M 368.5,240.5 C 370.696,243.558 372.362,246.891 373.5,250.5C 371.833,250.5 370.167,250.5 368.5,250.5C 368.172,247.315 368.172,243.982 368.5,240.5 Z"/></g>
<g><path style="opacity:1" fill="#b393fc" d="M 323.5,243.5 C 317.277,244.836 310.944,244.669 304.5,243C 303.7,239.894 302.033,237.394 299.5,235.5C 298.612,229.549 295.612,225.049 290.5,222C 288.613,221.22 286.946,221.387 285.5,222.5C 285.167,222.5 284.833,222.5 284.5,222.5C 283.203,224.693 283.203,227.027 284.5,229.5C 290.11,233.611 289.61,236.611 283,238.5C 280.475,236.95 278.641,234.783 277.5,232C 275.109,231.713 272.776,231.213 270.5,230.5C 267.123,232.325 263.457,232.992 259.5,232.5C 259.351,233.552 259.517,234.552 260,235.5C 262,236.833 264,238.167 266,239.5C 265.954,242.633 266.954,245.3 269,247.5C 269.814,249.902 269.647,252.235 268.5,254.5C 264.167,256.333 259.834,258.167 255.5,260C 250.384,260.709 245.384,260.209 240.5,258.5C 240.833,257.833 241.167,257.167 241.5,256.5C 244.167,255.833 246.833,255.167 249.5,254.5C 250.305,252.528 251.639,251.028 253.5,250C 251.875,249.147 251.542,248.147 252.5,247C 250.292,246.809 248.292,246.309 246.5,245.5C 250.167,245.5 253.833,245.5 257.5,245.5C 257.649,246.552 257.483,247.552 257,248.5C 254.128,251.037 251.628,253.87 249.5,257C 250.729,257.781 252.062,258.281 253.5,258.5C 256.617,256.744 259.95,255.744 263.5,255.5C 263.682,253.325 264.349,251.325 265.5,249.5C 264.289,246.239 263.289,242.905 262.5,239.5C 259.167,236.833 255.833,234.167 252.5,231.5C 251.571,230.311 251.238,228.978 251.5,227.5C 254.455,229.386 257.789,230.386 261.5,230.5C 264.771,231.91 267.771,231.244 270.5,228.5C 273.131,229.344 275.631,229.677 278,229.5C 279.617,228.464 279.784,227.297 278.5,226C 279.64,224.027 280.973,222.193 282.5,220.5C 286.489,219.893 290.489,219.227 294.5,218.5C 296.721,215.025 297.054,211.358 295.5,207.5C 296.5,207.5 297.5,207.5 298.5,207.5C 298.297,209.39 298.963,210.89 300.5,212C 303.974,212.492 306.641,214.159 308.5,217C 306.198,221.468 302.531,223.634 297.5,223.5C 297.585,225.929 298.585,227.929 300.5,229.5C 300.291,230.086 299.957,230.586 299.5,231C 302.583,234.408 305.249,238.075 307.5,242C 312.708,243.397 318.041,243.897 323.5,243.5 Z"/></g>
<g><path style="opacity:1" fill="#adc4fc" d="M 199.5,194.5 C 200.833,195.833 202.167,197.167 203.5,198.5C 203.336,203.534 203.669,208.534 204.5,213.5C 204.213,216.865 203.046,219.865 201,222.5C 200.501,226.152 200.335,229.818 200.5,233.5C 197.5,233.5 194.5,233.5 191.5,233.5C 191.817,236.572 191.484,239.572 190.5,242.5C 188.775,243.015 187.108,243.682 185.5,244.5C 183.653,248.143 184.653,250.476 188.5,251.5C 190.833,251.5 193.167,251.5 195.5,251.5C 201.104,250.227 204.77,246.894 206.5,241.5C 207.5,241.5 208.5,241.5 209.5,241.5C 208.47,246.954 208.47,252.621 209.5,258.5C 201.257,255.147 192.757,252.48 184,250.5C 181.959,244.382 184.125,241.048 190.5,240.5C 187.991,233.079 190.657,230.412 198.5,232.5C 197.56,228.537 197.393,224.537 198,220.5C 200.154,218.352 201.654,215.852 202.5,213C 202.007,206.719 201.007,200.552 199.5,194.5 Z"/></g>
<g><path style="opacity:1" fill="#c293fb" d="M 284.5,222.5 C 283.425,226.938 285.092,228.938 289.5,228.5C 289.477,230.6 290.144,232.433 291.5,234C 290.015,236.156 288.515,238.323 287,240.5C 284.595,239.726 282.095,239.226 279.5,239C 276.922,232.723 272.922,231.723 267.5,236C 270.282,238.206 270.949,240.873 269.5,244C 269.969,245.887 270.969,247.387 272.5,248.5C 272.291,249.086 271.957,249.586 271.5,250C 273.211,251.133 273.711,252.633 273,254.5C 272.667,254.167 272.333,253.833 272,253.5C 269.98,256.757 267.146,258.924 263.5,260C 256.707,261.591 249.873,263.091 243,264.5C 242.228,264.355 241.561,264.022 241,263.5C 240.178,265.788 239.511,268.122 239,270.5C 238.292,271.381 237.458,272.047 236.5,272.5C 236.265,271.903 235.765,271.57 235,271.5C 233.433,272.856 231.6,273.523 229.5,273.5C 228.167,273.167 226.833,272.833 225.5,272.5C 225.729,267.995 225.063,263.661 223.5,259.5C 221.418,259.528 219.584,258.861 218,257.5C 217.517,258.448 217.351,259.448 217.5,260.5C 215.858,258.919 213.858,258.253 211.5,258.5C 211.5,257.5 211.5,256.5 211.5,255.5C 212.167,255.5 212.5,255.167 212.5,254.5C 213.404,253.791 213.737,252.791 213.5,251.5C 219.63,249.801 225.963,248.634 232.5,248C 236.639,244.3 241.305,243.466 246.5,245.5C 248.292,246.309 250.292,246.809 252.5,247C 251.542,248.147 251.875,249.147 253.5,250C 251.639,251.028 250.305,252.528 249.5,254.5C 246.833,255.167 244.167,255.833 241.5,256.5C 241.167,257.167 240.833,257.833 240.5,258.5C 245.384,260.209 250.384,260.709 255.5,260C 259.834,258.167 264.167,256.333 268.5,254.5C 269.647,252.235 269.814,249.902 269,247.5C 266.954,245.3 265.954,242.633 266,239.5C 264,238.167 262,236.833 260,235.5C 259.517,234.552 259.351,233.552 259.5,232.5C 263.457,232.992 267.123,232.325 270.5,230.5C 272.776,231.213 275.109,231.713 277.5,232C 278.641,234.783 280.475,236.95 283,238.5C 289.61,236.611 290.11,233.611 284.5,229.5C 283.203,227.027 283.203,224.693 284.5,222.5 Z"/></g>
<g><path style="opacity:0.298" fill="#d0e0ef" d="M 51.5,250.5 C 53.2517,250.418 54.2517,251.251 54.5,253C 52.8333,256.333 51.1667,256.333 49.5,253C 50.0556,251.989 50.7222,251.156 51.5,250.5 Z"/></g>
<g><path style="opacity:1" fill="#cb94fc" d="M 284.5,222.5 C 284.833,222.5 285.167,222.5 285.5,222.5C 288.792,224.925 292.292,227.258 296,229.5C 296.789,232.834 297.956,236.001 299.5,239C 298.167,240.84 298.334,241.34 300,240.5C 302.416,243.423 305.25,245.757 308.5,247.5C 307.527,249.25 306.193,250.75 304.5,252C 307.945,258.765 306.779,259.931 301,255.5C 299.941,255.63 299.108,256.13 298.5,257C 302.079,258.301 305.412,259.967 308.5,262C 307.54,263.419 306.707,264.919 306,266.5C 304.951,267.517 303.784,267.684 302.5,267C 303.458,265.853 303.125,264.853 301.5,264C 300.552,263.517 299.552,263.351 298.5,263.5C 299.152,259.44 297.485,257.44 293.5,257.5C 292.494,261.53 289.827,263.197 285.5,262.5C 280.88,260.869 276.546,261.202 272.5,263.5C 270.278,263.178 268.444,263.845 267,265.5C 266.539,269.439 265.706,273.272 264.5,277C 265.422,279.961 266.422,282.961 267.5,286C 267.836,287.03 268.503,287.53 269.5,287.5C 270.117,287.611 270.617,287.944 271,288.5C 271.497,290.81 271.663,293.143 271.5,295.5C 272.978,295.238 274.311,295.571 275.5,296.5C 281.28,305.384 278.947,309.217 268.5,308C 263.469,305.804 259.135,302.637 255.5,298.5C 255.85,294.946 255.184,291.612 253.5,288.5C 258.498,288.004 260.331,285.337 259,280.5C 257.334,278.597 255.5,278.263 253.5,279.5C 250.939,281.64 248.605,283.973 246.5,286.5C 243.516,284.016 240.682,281.35 238,278.5C 237.685,276.414 237.185,274.414 236.5,272.5C 237.458,272.047 238.292,271.381 239,270.5C 239.511,268.122 240.178,265.788 241,263.5C 241.561,264.022 242.228,264.355 243,264.5C 249.873,263.091 256.707,261.591 263.5,260C 267.146,258.924 269.98,256.757 272,253.5C 272.333,253.833 272.667,254.167 273,254.5C 273.711,252.633 273.211,251.133 271.5,250C 271.957,249.586 272.291,249.086 272.5,248.5C 270.969,247.387 269.969,245.887 269.5,244C 270.949,240.873 270.282,238.206 267.5,236C 272.922,231.723 276.922,232.723 279.5,239C 282.095,239.226 284.595,239.726 287,240.5C 288.515,238.323 290.015,236.156 291.5,234C 290.144,232.433 289.477,230.6 289.5,228.5C 285.092,228.938 283.425,226.938 284.5,222.5 Z"/></g>
<g><path style="opacity:0.967" fill="#d0aaf4" d="M 317.5,257.5 C 318.167,257.833 318.833,258.167 319.5,258.5C 321.467,258.739 323.301,258.406 325,257.5C 325.483,258.448 325.649,259.448 325.5,260.5C 322.196,260.149 318.863,259.816 315.5,259.5C 315.167,260 314.833,260.5 314.5,261C 318.438,263.413 319.438,266.747 317.5,271C 317.865,273.261 318.531,275.427 319.5,277.5C 319.023,278.931 318.357,280.264 317.5,281.5C 313.235,282.439 308.902,282.772 304.5,282.5C 308.365,281.776 312.365,281.109 316.5,280.5C 317.641,278.579 317.808,276.579 317,274.5C 315.883,269.891 313.716,265.558 310.5,261.5C 311.753,257.105 314.086,255.771 317.5,257.5 Z"/></g>
<g><path style="opacity:0.557" fill="#d3acf7" d="M 337.5,255.5 C 334.873,255.293 333.207,256.46 332.5,259C 334.768,261.37 336.101,264.203 336.5,267.5C 336.658,269.319 335.991,270.652 334.5,271.5C 331.714,269.043 329.714,266.043 328.5,262.5C 327.261,262.058 326.261,261.391 325.5,260.5C 326.873,260.657 328.207,260.49 329.5,260C 330.061,258.324 331.061,256.991 332.5,256C 332.167,255.667 331.833,255.333 331.5,255C 333.712,254.211 335.712,254.378 337.5,255.5 Z"/></g>
<g><path style="opacity:1" fill="#a795fa" d="M 225.5,272.5 C 223.299,273.566 220.965,274.233 218.5,274.5C 218.5,273.5 218.5,272.5 218.5,271.5C 219.5,271.5 220.5,271.5 221.5,271.5C 220.676,267.666 219.342,263.999 217.5,260.5C 217.351,259.448 217.517,258.448 218,257.5C 219.584,258.861 221.418,259.528 223.5,259.5C 225.063,263.661 225.729,267.995 225.5,272.5 Z"/></g>
<g><path style="opacity:0.71" fill="#cdacf8" d="M 285.5,262.5 C 287.249,263.985 289.249,264.985 291.5,265.5C 289.612,266.275 287.612,266.275 285.5,265.5C 284.167,265.5 282.833,265.5 281.5,265.5C 278.319,263.676 275.653,264.176 273.5,267C 275.443,266.695 277.443,266.695 279.5,267C 280.381,267.708 281.047,268.542 281.5,269.5C 278.263,269.342 274.93,269.342 271.5,269.5C 270.23,267.243 270.564,265.243 272.5,263.5C 276.546,261.202 280.88,260.869 285.5,262.5 Z"/></g>
<g><path style="opacity:0.958" fill="#ce9cfa" d="M 308.5,247.5 C 309.209,248.404 310.209,248.737 311.5,248.5C 312.79,249.058 313.623,250.058 314,251.5C 314.333,251.167 314.667,250.833 315,250.5C 315.847,252.854 316.68,255.188 317.5,257.5C 314.086,255.771 311.753,257.105 310.5,261.5C 313.716,265.558 315.883,269.891 317,274.5C 317.808,276.579 317.641,278.579 316.5,280.5C 312.365,281.109 308.365,281.776 304.5,282.5C 303.609,281.89 302.609,281.557 301.5,281.5C 300.048,280.698 298.382,280.198 296.5,280C 297.833,279.333 297.833,278.667 296.5,278C 298.594,276.648 300.927,276.148 303.5,276.5C 303.5,275.5 303.5,274.5 303.5,273.5C 302.489,271.628 301.655,269.628 301,267.5C 298.901,266.534 297.068,265.2 295.5,263.5C 294.14,264.18 292.807,264.847 291.5,265.5C 289.249,264.985 287.249,263.985 285.5,262.5C 289.827,263.197 292.494,261.53 293.5,257.5C 297.485,257.44 299.152,259.44 298.5,263.5C 299.552,263.351 300.552,263.517 301.5,264C 303.125,264.853 303.458,265.853 302.5,267C 303.784,267.684 304.951,267.517 306,266.5C 306.707,264.919 307.54,263.419 308.5,262C 305.412,259.967 302.079,258.301 298.5,257C 299.108,256.13 299.941,255.63 301,255.5C 306.779,259.931 307.945,258.765 304.5,252C 306.193,250.75 307.527,249.25 308.5,247.5 Z"/></g>
<g><path style="opacity:1" fill="#a3b7f8" d="M 181.5,267.5 C 184.5,267.5 187.5,267.5 190.5,267.5C 190.5,268.833 190.5,270.167 190.5,271.5C 187.167,271.5 183.833,271.5 180.5,271.5C 180.433,270.041 180.766,268.708 181.5,267.5 Z"/></g>
<g><path style="opacity:0.408" fill="#b5c7f8" d="M 213.5,263.5 C 214.766,266.099 216.766,268.099 219.5,269.5C 219.137,270.183 218.804,270.85 218.5,271.5C 217.728,272.694 216.728,273.694 215.5,274.5C 213.251,273.92 211.585,272.587 210.5,270.5C 211.239,270.631 211.906,270.464 212.5,270C 211.965,267.891 210.965,267.391 209.5,268.5C 207.071,267.119 207.405,266.119 210.5,265.5C 211.209,266.404 212.209,266.737 213.5,266.5C 213.5,265.5 213.5,264.5 213.5,263.5 Z"/></g>
<g><path style="opacity:0.945" fill="#cebbf5" d="M 281.5,265.5 C 282.833,265.5 284.167,265.5 285.5,265.5C 286.747,267.178 288.414,268.511 290.5,269.5C 291.428,270.768 291.595,272.101 291,273.5C 288.226,274.523 285.393,274.523 282.5,273.5C 282.611,272.883 282.944,272.383 283.5,272C 282.584,271.722 281.918,271.222 281.5,270.5C 283.922,268.714 283.922,267.048 281.5,265.5 Z"/></g>
<g><path style="opacity:0.565" fill="#c8d5ec" d="M 123.5,268.5 C 125.5,268.5 127.5,268.5 129.5,268.5C 130.245,271.93 128.911,273.597 125.5,273.5C 121.254,273.088 120.587,271.421 123.5,268.5 Z"/></g>
<g><path style="opacity:0.816" fill="#d0a9f3" d="M 351.5,253.5 C 345.797,254.532 345.297,256.532 350,259.5C 352.558,258.849 353.391,257.515 352.5,255.5C 355.021,254.528 355.854,255.528 355,258.5C 352.806,261.181 349.973,262.681 346.5,263C 347.448,263.483 348.448,263.649 349.5,263.5C 349.286,265.144 349.62,266.644 350.5,268C 349.152,269.574 348.486,271.407 348.5,273.5C 350.93,282.743 356.93,286.576 366.5,285C 369.014,283.548 371.68,282.382 374.5,281.5C 378.018,276.83 378.851,271.83 377,266.5C 375.629,263.734 373.796,261.401 371.5,259.5C 368.802,258.322 366.469,256.489 364.5,254C 365.667,253.5 366.5,252.667 367,251.5C 367.383,252.056 367.883,252.389 368.5,252.5C 368.369,253.239 368.536,253.906 369,254.5C 374.766,258.037 378.599,263.037 380.5,269.5C 379.565,273.139 378.732,276.806 378,280.5C 368.897,290.073 359.231,290.406 349,281.5C 347.084,276.351 346.084,271.017 346,265.5C 344.404,262.631 342.57,259.964 340.5,257.5C 341.935,256.21 342.935,254.544 343.5,252.5C 343.911,253.262 344.077,254.262 344,255.5C 345.366,253.256 347.366,251.923 350,251.5C 351.03,251.836 351.53,252.503 351.5,253.5 Z M 351.5,253.5 C 351.833,254.167 352.167,254.833 352.5,255.5C 353.391,257.515 352.558,258.849 350,259.5C 345.297,256.532 345.797,254.532 351.5,253.5 Z"/></g>
<g><path style="opacity:1" fill="#cd94fc" d="M 371.5,259.5 C 373.796,261.401 375.629,263.734 377,266.5C 378.851,271.83 378.018,276.83 374.5,281.5C 371.68,282.382 369.014,283.548 366.5,285C 356.93,286.576 350.93,282.743 348.5,273.5C 348.486,271.407 349.152,269.574 350.5,268C 349.62,266.644 349.286,265.144 349.5,263.5C 354.226,263.921 357.226,261.588 358.5,256.5C 360.421,255.359 362.421,255.192 364.5,256C 366.067,258.741 368.401,259.908 371.5,259.5 Z"/></g>
<g><path style="opacity:0.924" fill="#bca6f8" d="M 218.5,271.5 C 218.5,272.5 218.5,273.5 218.5,274.5C 220.965,274.233 223.299,273.566 225.5,272.5C 226.833,272.833 228.167,273.167 229.5,273.5C 231.22,274.864 233.22,275.864 235.5,276.5C 237.217,280.991 237.883,285.657 237.5,290.5C 236.833,288.5 236.167,286.5 235.5,284.5C 235.356,280.19 233.19,277.523 229,276.5C 225.745,277.228 224.578,278.895 225.5,281.5C 224.698,282.952 224.198,284.618 224,286.5C 223.439,285.978 222.772,285.645 222,285.5C 219.79,287.111 217.29,287.778 214.5,287.5C 215.702,283.952 216.369,280.285 216.5,276.5C 216.167,275.833 215.833,275.167 215.5,274.5C 216.728,273.694 217.728,272.694 218.5,271.5 Z"/></g>
<g><path style="opacity:0.878" fill="#d2b4f2" d="M 303.5,273.5 C 303.5,274.5 303.5,275.5 303.5,276.5C 300.927,276.148 298.594,276.648 296.5,278C 297.833,278.667 297.833,279.333 296.5,280C 298.382,280.198 300.048,280.698 301.5,281.5C 295.45,282.675 292.45,280.342 292.5,274.5C 294.792,274.244 296.959,274.577 299,275.5C 300.33,274.418 301.83,273.751 303.5,273.5 Z"/></g>
<g><path style="opacity:1" fill="#cd9bfb" d="M 236.5,272.5 C 237.185,274.414 237.685,276.414 238,278.5C 240.682,281.35 243.516,284.016 246.5,286.5C 248.605,283.973 250.939,281.64 253.5,279.5C 255.5,278.263 257.334,278.597 259,280.5C 260.331,285.337 258.498,288.004 253.5,288.5C 255.184,291.612 255.85,294.946 255.5,298.5C 253.318,296.149 251.985,293.316 251.5,290C 247.928,288.595 244.261,288.262 240.5,289C 241.056,289.383 241.389,289.883 241.5,290.5C 240.039,291.686 238.705,291.686 237.5,290.5C 237.883,285.657 237.217,280.991 235.5,276.5C 233.22,275.864 231.22,274.864 229.5,273.5C 231.6,273.523 233.433,272.856 235,271.5C 235.765,271.57 236.265,271.903 236.5,272.5 Z"/></g>
<g><path style="opacity:0.584" fill="#ce9ffa" d="M 272.5,263.5 C 270.564,265.243 270.23,267.243 271.5,269.5C 274.93,269.342 278.263,269.342 281.5,269.5C 281.5,269.833 281.5,270.167 281.5,270.5C 281.918,271.222 282.584,271.722 283.5,272C 282.944,272.383 282.611,272.883 282.5,273.5C 281.766,274.708 281.433,276.041 281.5,277.5C 280.474,280.36 278.808,282.86 276.5,285C 277.774,285.977 277.774,286.811 276.5,287.5C 275.341,285.75 273.674,284.75 271.5,284.5C 271.5,283.833 271.167,283.5 270.5,283.5C 270.34,281.801 270.506,280.134 271,278.5C 275.145,274.228 273.978,272.061 267.5,272C 266.199,273.616 266.199,275.116 267.5,276.5C 267.328,277.492 267.662,278.158 268.5,278.5C 268.346,281.349 268.68,284.349 269.5,287.5C 268.503,287.53 267.836,287.03 267.5,286C 266.422,282.961 265.422,279.961 264.5,277C 265.706,273.272 266.539,269.439 267,265.5C 268.444,263.845 270.278,263.178 272.5,263.5 Z M 268.5,278.5 C 267.662,278.158 267.328,277.492 267.5,276.5C 267.843,274.775 268.843,274.275 270.5,275C 269.915,276.302 269.249,277.469 268.5,278.5 Z"/></g>
<g><path style="opacity:1" fill="#d4aef4" d="M 281.5,277.5 C 283.262,282.195 282.762,286.529 280,290.5C 278.482,289.837 277.315,288.837 276.5,287.5C 277.774,286.811 277.774,285.977 276.5,285C 278.808,282.86 280.474,280.36 281.5,277.5 Z"/></g>
<g><path style="opacity:0.612" fill="#d2bbf0" d="M 328.5,280.5 C 332.269,281.424 333.269,283.59 331.5,287C 326.4,286.887 325.4,284.721 328.5,280.5 Z"/></g>
<g><path style="opacity:0.22" fill="#ceb8f0" d="M 286.5,280.5 C 290.987,280.141 292.654,281.974 291.5,286C 289.866,286.494 288.199,286.66 286.5,286.5C 286.5,284.5 286.5,282.5 286.5,280.5 Z"/></g>
<g><path style="opacity:1" fill="#a6b9fb" d="M 194.5,287.5 C 200.5,286.167 202.833,288.5 201.5,294.5C 195.5,295.833 193.167,293.5 194.5,287.5 Z"/></g>
<g><path style="opacity:0.365" fill="#cdb1ee" d="M 336.5,282.5 C 339.05,282.884 340.383,284.384 340.5,287C 338.817,291.411 336.817,291.411 334.5,287C 335.267,285.53 335.933,284.03 336.5,282.5 Z"/></g>
<g><path style="opacity:0.992" fill="#cbaef2" d="M 235.5,284.5 C 236.167,286.5 236.833,288.5 237.5,290.5C 238.705,291.686 240.039,291.686 241.5,290.5C 241.224,296.001 240.224,301.334 238.5,306.5C 237.311,307.429 235.978,307.762 234.5,307.5C 234.5,306.833 234.167,306.5 233.5,306.5C 234.415,299.066 235.082,291.732 235.5,284.5 Z"/></g>
<g><path style="opacity:0.58" fill="#b8d0f2" d="M 106.5,290.5 C 107.873,290.343 109.207,290.51 110.5,291C 111.451,291.718 111.617,292.551 111,293.5C 107.647,296.374 103.813,298.041 99.5,298.5C 99.238,297.022 99.5713,295.689 100.5,294.5C 102.911,293.639 104.911,292.306 106.5,290.5 Z"/></g>
<g><path style="opacity:0.545" fill="#bfb3e9" d="M 183.5,295.5 C 186.767,295.424 188.101,296.757 187.5,299.5C 185.438,300.761 183.772,300.261 182.5,298C 183.252,297.329 183.586,296.496 183.5,295.5 Z"/></g>
<g><path style="opacity:0.608" fill="#cfb9ef" d="M 325.5,290.5 C 330.472,290.952 331.472,293.119 328.5,297C 329.26,298.441 329.926,299.941 330.5,301.5C 328.543,304.059 326.877,303.726 325.5,300.5C 326.167,299.5 326.833,298.5 327.5,297.5C 325.827,295.477 325.16,293.144 325.5,290.5 Z"/></g>
<g><path style="opacity:0.976" fill="#c2caef" d="M 282.5,304.5 C 282.833,303.833 283.167,303.167 283.5,302.5C 285.948,301.527 288.615,301.194 291.5,301.5C 291.773,303.451 291.107,304.951 289.5,306C 287.041,306.239 284.707,305.739 282.5,304.5 Z"/></g>
<g><path style="opacity:0.655" fill="#b4ace8" d="M 178.5,300.5 C 184.903,303.091 184.903,306.091 178.5,309.5C 177.266,306.465 177.266,303.465 178.5,300.5 Z"/></g>
<g><path style="opacity:0.561" fill="#bea4f1" d="M 200.5,300.5 C 204.591,299.836 207.591,301.17 209.5,304.5C 209.5,304.833 209.5,305.167 209.5,305.5C 208.833,305.5 208.5,305.833 208.5,306.5C 204.698,309.292 201.698,308.458 199.5,304C 199.989,302.862 200.322,301.695 200.5,300.5 Z"/></g>
<g><path style="opacity:0.506" fill="#b9d1f3" d="M 179.5,292.5 C 178.908,295.127 178.575,297.794 178.5,300.5C 177.266,303.465 177.266,306.465 178.5,309.5C 178.374,312.468 176.874,314.468 174,315.5C 173.333,319.5 173.333,323.5 174,327.5C 176.948,329.043 177.782,331.21 176.5,334C 173.997,334.129 171.997,335.129 170.5,337C 168.5,337.667 166.5,337.667 164.5,337C 163.875,334.2 163.208,331.366 162.5,328.5C 160.616,327.307 160.116,325.641 161,323.5C 162.667,322.5 164.333,321.5 166,320.5C 165.974,316.695 167.808,314.695 171.5,314.5C 172.924,305.812 172.758,297.145 171,288.5C 167.746,283.777 163.246,282.277 157.5,284C 156.364,285.145 155.364,286.312 154.5,287.5C 153.903,287.265 153.57,286.765 153.5,286C 154.67,284.413 155.67,282.747 156.5,281C 160.887,280.774 165.221,280.274 169.5,279.5C 173.275,280.462 174.275,282.629 172.5,286C 173.328,286.915 174.328,287.581 175.5,288C 174.663,289.011 174.33,290.178 174.5,291.5C 176.216,291.629 177.883,291.962 179.5,292.5 Z"/></g>
<g><path style="opacity:0.504" fill="#c9a5f5" d="M 270.5,283.5 C 271.167,283.5 271.5,283.833 271.5,284.5C 273.514,287.194 275.014,290.194 276,293.5C 278.042,296.94 280.542,299.94 283.5,302.5C 283.167,303.167 282.833,303.833 282.5,304.5C 281.091,306.972 279.424,309.305 277.5,311.5C 277.5,312.833 277.5,314.167 277.5,315.5C 275.94,315.481 274.44,315.148 273,314.5C 268.732,311.906 264.566,309.24 260.5,306.5C 257.196,304.027 254.362,301.027 252,297.5C 251.187,295.564 250.687,293.564 250.5,291.5C 248.063,291.244 245.729,290.577 243.5,289.5C 242.817,289.863 242.15,290.196 241.5,290.5C 241.389,289.883 241.056,289.383 240.5,289C 244.261,288.262 247.928,288.595 251.5,290C 251.985,293.316 253.318,296.149 255.5,298.5C 259.135,302.637 263.469,305.804 268.5,308C 278.947,309.217 281.28,305.384 275.5,296.5C 274.311,295.571 272.978,295.238 271.5,295.5C 271.663,293.143 271.497,290.81 271,288.5C 270.617,287.944 270.117,287.611 269.5,287.5C 268.68,284.349 268.346,281.349 268.5,278.5C 269.249,277.469 269.915,276.302 270.5,275C 268.843,274.275 267.843,274.775 267.5,276.5C 266.199,275.116 266.199,273.616 267.5,272C 273.978,272.061 275.145,274.228 271,278.5C 270.506,280.134 270.34,281.801 270.5,283.5 Z"/></g>
<g><path style="opacity:1" fill="#b4d3fd" d="M 260.5,307.5 C 261.763,311.553 264.596,313.553 269,313.5C 270.683,315.351 272.516,317.017 274.5,318.5C 274.167,320.5 273.833,322.5 273.5,324.5C 271.133,325.164 269.133,326.497 267.5,328.5C 262.068,329.593 256.401,329.593 250.5,328.5C 248.299,324.854 247.966,321.021 249.5,317C 248.906,316.536 248.239,316.369 247.5,316.5C 251.03,312.297 255.364,309.297 260.5,307.5 Z"/></g>
<g><path style="opacity:0.839" fill="#bcd2f3" d="M 121.5,309.5 C 123.833,309.5 126.167,309.5 128.5,309.5C 129.023,315.487 126.523,317.487 121,315.5C 120.322,313.402 120.489,311.402 121.5,309.5 Z"/></g>
<g><path style="opacity:1" fill="#b4bcf4" d="M 260.5,306.5 C 264.566,309.24 268.732,311.906 273,314.5C 274.44,315.148 275.94,315.481 277.5,315.5C 277.5,314.167 277.5,312.833 277.5,311.5C 279.109,314.447 278.442,316.78 275.5,318.5C 275.167,318.5 274.833,318.5 274.5,318.5C 272.516,317.017 270.683,315.351 269,313.5C 264.596,313.553 261.763,311.553 260.5,307.5C 260.5,307.167 260.5,306.833 260.5,306.5 Z"/></g>
<g><path style="opacity:0.947" fill="#c496f8" d="M 232.5,316.5 C 232.5,317.5 232.5,318.5 232.5,319.5C 230.891,320.665 230.557,321.999 231.5,323.5C 231.167,323.5 230.833,323.5 230.5,323.5C 229.25,323.423 228.417,322.756 228,321.5C 227.667,321.833 227.333,322.167 227,322.5C 226.187,318.336 226.687,314.336 228.5,310.5C 229.328,309.585 230.328,308.919 231.5,308.5C 232.48,311.086 232.813,313.753 232.5,316.5 Z"/></g>
<g><path style="opacity:0.898" fill="#d1b4ec" d="M 301.5,312.5 C 305.935,312.752 307.268,314.919 305.5,319C 300.791,319.082 299.458,316.915 301.5,312.5 Z"/></g>
<g><path style="opacity:0.671" fill="#d2bceb" d="M 332.5,314.5 C 333.873,314.343 335.207,314.51 336.5,315C 337.474,317.702 336.474,319.035 333.5,319C 332.62,317.644 332.286,316.144 332.5,314.5 Z"/></g>
<g><path style="opacity:0.614" fill="#b8a0e8" d="M 233.5,307.5 C 233.833,307.5 234.167,307.5 234.5,307.5C 234.785,310.829 234.118,313.829 232.5,316.5C 232.813,313.753 232.48,311.086 231.5,308.5C 230.328,308.919 229.328,309.585 228.5,310.5C 226.687,314.336 226.187,318.336 227,322.5C 227.333,322.167 227.667,321.833 228,321.5C 228.417,322.756 229.25,323.423 230.5,323.5C 229.51,327.149 227.677,327.482 225,324.5C 224.885,321.366 224.718,318.366 224.5,315.5C 224.5,313.833 224.5,312.167 224.5,310.5C 226.942,310.646 227.609,309.813 226.5,308C 228.81,307.503 231.143,307.337 233.5,307.5 Z"/></g>
<g><path style="opacity:1" fill="#bcd5f5" d="M 134.5,317.5 C 139.547,317.376 141.38,319.709 140,324.5C 136.197,329.508 132.364,329.675 128.5,325C 128.903,321.108 130.903,318.608 134.5,317.5 Z"/></g>
<g><path style="opacity:0.157" fill="#bdace8" d="M 232.5,319.5 C 233.968,320.779 234.635,322.446 234.5,324.5C 233.209,324.737 232.209,324.404 231.5,323.5C 230.557,321.999 230.891,320.665 232.5,319.5 Z"/></g>
<g><path style="opacity:0.716" fill="#b1c8ec" d="M 108.5,322.5 C 109.833,322.5 111.167,322.5 112.5,322.5C 113.167,326.5 111.5,328.167 107.5,327.5C 107.366,325.708 107.699,324.042 108.5,322.5 Z"/></g>
<g><path style="opacity:0.725" fill="#c6d8f5" d="M 247.5,316.5 C 248.239,316.369 248.906,316.536 249.5,317C 247.966,321.021 248.299,324.854 250.5,328.5C 256.401,329.593 262.068,329.593 267.5,328.5C 269.133,326.497 271.133,325.164 273.5,324.5C 273.833,322.5 274.167,320.5 274.5,318.5C 274.833,318.5 275.167,318.5 275.5,318.5C 274.846,327.463 270.013,332.129 261,332.5C 256.081,331.919 251.415,330.586 247,328.5C 246.503,324.476 246.669,320.476 247.5,316.5 Z"/></g>
<g><path style="opacity:1" fill="#d1b4f1" d="M 321.5,328.5 C 325.938,327.425 327.938,329.092 327.5,333.5C 323.062,334.575 321.062,332.908 321.5,328.5 Z"/></g>
<g><path style="opacity:0.376" fill="#b8ceed" d="M 103.5,330.5 C 104.833,330.5 106.167,330.5 107.5,330.5C 108.323,335.339 106.323,337.673 101.5,337.5C 101.394,334.921 102.061,332.588 103.5,330.5 Z"/></g>
<g><path style="opacity:0.498" fill="#c8a7ec" d="M 310.5,345.5 C 310.813,341.958 310.479,338.625 309.5,335.5C 308.883,333.771 307.883,332.271 306.5,331C 295.063,326.961 290.063,330.795 291.5,342.5C 291.5,342.833 291.5,343.167 291.5,343.5C 289.754,342.751 288.754,341.417 288.5,339.5C 289.346,335.794 290.679,332.294 292.5,329C 298.871,325.557 304.705,326.391 310,331.5C 312.22,335.595 312.887,339.928 312,344.5C 311.617,345.056 311.117,345.389 310.5,345.5 Z"/></g>
<g><path style="opacity:1" fill="#cd94fc" d="M 309.5,335.5 C 310.043,340.039 308.71,343.873 305.5,347C 302.012,346.98 301.679,345.814 304.5,343.5C 304.167,343.167 303.833,342.833 303.5,342.5C 301.591,343.348 299.591,343.682 297.5,343.5C 297.328,341.508 297.995,339.842 299.5,338.5C 298.064,334.864 296.397,334.697 294.5,338C 296.161,341.15 295.161,342.65 291.5,342.5C 290.063,330.795 295.063,326.961 306.5,331C 307.883,332.271 308.883,333.771 309.5,335.5 Z"/></g>
<g><path style="opacity:0.58" fill="#c1afe3" d="M 234.5,329.5 C 236.026,330.492 236.693,331.992 236.5,334C 235.821,339.815 234.487,339.982 232.5,334.5C 232.437,332.486 233.103,330.819 234.5,329.5 Z"/></g>
<g><path style="opacity:1" fill="#cb99f6" d="M 309.5,335.5 C 310.479,338.625 310.813,341.958 310.5,345.5C 309.071,348.748 306.571,350.081 303,349.5C 300.7,349.506 298.534,349.006 296.5,348C 294.963,346.293 293.296,344.793 291.5,343.5C 291.5,343.167 291.5,342.833 291.5,342.5C 295.161,342.65 296.161,341.15 294.5,338C 296.397,334.697 298.064,334.864 299.5,338.5C 297.995,339.842 297.328,341.508 297.5,343.5C 299.591,343.682 301.591,343.348 303.5,342.5C 303.833,342.833 304.167,343.167 304.5,343.5C 301.679,345.814 302.012,346.98 305.5,347C 308.71,343.873 310.043,340.039 309.5,335.5 Z"/></g>
<g><path style="opacity:0.792" fill="#bcd6f2" d="M 176.5,338.5 C 177.822,338.33 178.989,338.663 180,339.5C 182.502,343.132 182.002,346.132 178.5,348.5C 175.328,345.796 174.662,342.463 176.5,338.5 Z"/></g>
</svg>
